<?xml version="1.0" encoding="utf-8" standalone="yes"?>
<!DOCTYPE svg PUBLIC "-//W3C//DTD SVG 1.1//EN" "http://www.w3.org/Graphics/SVG/1.1/DTD/svg11.dtd">
<svg style="fill:none;stroke:none;fill-rule:evenodd;clip-rule:evenodd;stroke-linecap:round;stroke-linejoin:round;stroke-miterlimit:1.5;" version="1.1" xmlns="http://www.w3.org/2000/svg" xmlns:xlink="http://www.w3.org/1999/xlink" width="630" height="615" viewBox="0 0 630 615"><g id="items" style="isolation: isolate"><g id="blend" style="mix-blend-mode: normal"><g id="g-root-sy_4_cu_cu_1i2a81wvqmfg-fill" data-item-order="999668224" transform="translate(19.33575439453125, 11.003173828125)"><g id="sy_4_cu_cu_1i2a81wvqmfg-fill-merged" stroke="none" fill="#dce9ff" fill-opacity="1"><g><path d="M179 566.8L215.8 577.4L221.3 558.1L184.5 547.6L179 566.8 M105.7 517.1L158.4 540.8L168.6 523.4L113.9 498.9L105.7 517.1 M168.6 523.4L78.2 455.9L67.9 473.2L158.4 540.8L168.6 523.4 M67.9 473.2L128.3 500.9L138.1 483.3L78.2 455.9L67.9 473.2 M138.1 483.3L54.8 428.1L45.8 446.1L128.3 500.9L138.1 483.3 M45.8 446.1L113.5 470.5L122.3 452.4L54.8 428.1L45.8 446.1 M122.3 452.4L37.1 398.9L27.9 416.7L113.5 470.5L122.3 452.4 M27.9 416.7L102.2 447.5L112 429.9L37.1 398.9L27.9 416.7 M112 429.9L34.7 374.2L24.5 391.5L102.2 447.5L112 429.9 M24.5 391.5L87 420.5L97.2 403.2L34.7 374.2L24.5 391.5 M97.2 403.2L28.2 352.4L18.5 370.1L87 420.5L97.2 403.2 M18.5 370.1L87.2 396.2L96.6 378.4L28.2 352.4L18.5 370.1 M96.6 378.4L18 323.1L8.4 340.8L87.2 396.2L96.6 378.4 M8.4 340.8L90.9 373.5L100.2 355.7L18 323.1L8.4 340.8 M100.2 355.7L16.3 300.1L7.1 317.9L90.9 373.5L100.2 355.7 M7.1 317.9L89.5 349.7L98.8 331.9L16.3 300.1L7.1 317.9 M98.8 331.9L20.1 279L10.9 296.9L89.5 349.7L98.8 331.9 M10.9 296.9L93.3 328.4L102.2 310.4L20.1 279L10.9 296.9 M102.2 310.4L16 257.8L7.7 276.2L93.3 328.4L102.2 310.4 M7.7 276.2L101.7 305.6L109.5 287.1L16 257.8L7.7 276.2 M109.5 287.1L18.8 238.3L11.2 256.9L101.7 305.6L109.5 287.1 M11.2 256.9L112.5 286.6L120.6 268.1L18.8 238.3L11.2 256.9 M120.6 268.1L23.7 210.2L14.9 228.2L112.5 286.6L120.6 268.1 M14.9 228.2L122.1 270.1L130.9 252L23.7 210.2L14.9 228.2 M130.9 252L32 193L23.7 211.4L122.1 270.1L130.9 252 M23.7 211.4L138.1 248L145.8 229.5L32 193L23.7 211.4 M145.8 229.5L40.4 174.5L32.5 192.9L138.1 248L145.8 229.5 M32.5 192.9L147.6 233.2L156.1 215L40.4 174.5L32.5 192.9 M156.1 215L50.1 151.4L41.5 169.6L147.6 233.2L156.1 215 M41.5 169.6L168.8 214.8L177.4 196.6L50.1 151.4L41.5 169.6 M177.4 196.6L64.9 129.2L55.8 147.1L168.8 214.8L177.4 196.6 M55.8 147.1L190.2 202.5L199 184.5L64.9 129.2L55.8 147.1 M199 184.5L73.9 113.2L65.6 131.5L190.2 202.5L199 184.5 M65.6 131.5L220.3 185.2L228.3 166.8L73.9 113.2L65.6 131.5 M228.3 166.8L96.6 97.9L88.5 116.2L220.3 185.2L228.3 166.8 M88.5 116.2L254.1 175.7L261.8 157.3L96.6 97.9L88.5 116.2 M261.8 157.3L107.4 83.8L100 102.5L254.1 175.7L261.8 157.3 M100 102.5L302 168L309.3 149.3L107.4 83.8L100 102.5 M309.3 149.3L127.8 67L120.3 85.5L302 168L309.3 149.3 M120.3 85.5L574 249L581.4 230.4L127.8 67L120.3 85.5 M581.4 230.4L151.5 45.5L144.1 64.1L574 249L581.4 230.4 M144.1 64.1L570.1 221.9L577.5 203.3L151.5 45.5L144.1 64.1 M577.5 203.3L176.5 35.3L169.2 53.9L570.1 221.9L577.5 203.3 M169.2 53.9L559 196.6L566.2 178L176.5 35.3L169.2 53.9 M566.2 178L196.5 26.4L189.2 45L559 196.6L566.2 178 M189.2 45L538.1 171.5L545.6 153L196.5 26.4L189.2 45 M545.6 153L238.5 15.3L230.8 33.8L538.1 171.5L545.6 153 M230.8 33.8L518.6 142.3L526.5 124L238.5 15.3L230.8 33.8 M526.5 124L284.2 5.7L276.5 24.2L518.6 142.3L526.5 124 M276.5 24.2L493.6 101.5L501.3 83.1L284.2 5.7L276.5 24.2 M501.3 83.1L364.4 17.3L356.7 35.8L493.6 101.5L501.3 83.1 M356.7 35.8L421 58.4L427.7 39.5L364.4 17.3L356.7 35.8 M297.3 583.9L306 588.9L315.9 571.5L307.2 566.5L297.3 583.9 M345.8 582.2L352.6 582.4L371.5 577.4L380.6 569.6L388.9 568.5L402.9 563.1L409.8 558.6L416.7 558L436 540L437.8 523.2L417.1 533.6L416.7 538.6 H412.9L392.4 548.3L390.3 551L386.7 550.4L363.3 559.2L358.2 565.5L352.8 563.5L345.8 582.2 M417.1 533.6L438.3 547.1L458.3 536.1L437.8 523.2L417.1 533.6 M458.3 536.1L458.2 507.4L438.3 520.2 V547.1L458.3 536.1 M438.3 520.2L467.9 533.8L481.7 518.1L458.2 507.4L438.3 520.2 M481.7 518.1L462.3 486.4L448.8 502.7L467.9 533.8L481.7 518.1 M448.8 502.7L487 517L500.2 500.6L462.3 486.4L448.8 502.7 M500.2 500.6L481.2 471.1L468.6 488.4L487 517L500.2 500.6 M468.6 488.4L500.9 497.2L513.3 479.8L481.2 471.1L468.6 488.4 M513.3 479.8L491.5 447.4L478.3 463.6L500.9 497.2L513.3 479.8 M478.3 463.6L517.3 479.7L529 462.9L491.5 447.4L478.3 463.6 M529 462.9L498.7 430.3L488.3 448.4L517.3 479.7L529 462.9 M488.3 448.4L533.1 458.4L542.2 439.9L498.7 430.3L488.3 448.4 M542.2 439.9L505 408.9L493.8 425.6L533.1 458.4L542.2 439.9 M493.8 425.6L537.3 448.6L549.9 432.6L505 408.9L493.8 425.6 M549.9 432.6L510.7 388.3L498.8 405L537.3 448.6L549.9 432.6 M498.8 405L552.3 427.1L563 409.9L510.7 388.3L498.8 405 M563 409.9L512.8 365.4L502.1 382.7L552.3 427.1L563 409.9 M502.1 382.7L557.1 405.2L567.4 387.8L512.8 365.4L502.1 382.7 M567.4 387.8L508.3 339.8L498 357.2L557.1 405.2L567.4 387.8 M498 357.2L567.2 385.4L577.2 367.8L508.3 339.8L498 357.2 M577.2 367.8L507.6 315.5L497.9 333.2L567.2 385.4L577.2 367.8 M497.9 333.2L570.1 359.7L579 341.7L507.6 315.5L497.9 333.2 M579 341.7L493 287.1L484.3 305.3L570.1 359.7L579 341.7 M484.3 305.3L581 338.5L589.3 320.2L493 287.1L484.3 305.3 M589.3 320.2L483.9 259.4L474.8 277.2L581 338.5L589.3 320.2 M474.8 277.2L576 322.6L585.3 304.8L483.9 259.4L474.8 277.2 M585.3 304.8L458.9 228.3L450.2 246.5L576 322.6L585.3 304.8 M450.2 246.5L578.3 293.1L586.4 274.8L458.9 228.3L450.2 246.5 M586.4 274.8L434.6 194.2L426.1 212.4L578.3 293.1L586.4 274.8 M426.1 212.4L580.5 274.6L588 256L434.6 194.2L426.1 212.4" fill-rule="nonzero"></path></g></g></g><g id="g-root-sy_4_cu_cu_1i2a81wvqmfg-stroke" data-item-order="999668224" transform="translate(19.33575439453125, 11.003173828125)"><g id="sy_4_cu_cu_1i2a81wvqmfg-stroke" fill="none" stroke-linecap="round" stroke-linejoin="round" stroke-miterlimit="4" stroke="#484848" stroke-width="4" stroke-opacity="1"><g><path d="M 298 586C 457.058 586 586 457.058 586 298C 586 138.942 457.058 10 298 10C 138.942 10 10 138.942 10 298C 10 457.058 138.942 586 298 586ZM 298 586C 417.2935 586 514 489.2935 514 370C 514 250.7065 417.2935 154 298 154C 178.7065 154 82 250.7065 82 370C 82 489.2935 178.7065 586 298 586ZM 298 586C 318.8 585.8 339.6 585.4 358.7 579.6C 380.7 572.9 402.4 566.7 422.9 557.6C 442.2 549 460.4 537.8 476.4 524.1C 492.5 510.3 509.3 496.8 521.6 479.6C 534.4 461.6 548.7 444.3 557.2 423.8C 564.9 405 574.6 386.4 577.9 365.9C 581.6 343.8 584.4 321.4 586 298C 587.2 281 584.6 264.3 581.7 248.1C 578.9 232.3 575.3 216.8 569.7 202.2C 563.2 185.4 556.9 168.5 547.2 153.6C 538.8 140.6 531.6 126.7 520.9 115.6C 509.1 103.5 498.6 90.2 485.6 79.4C 473.7 69.7 461.7 60 448.4 52.3C 434 44.1 419.3 36.2 403.8 30C 386 23.1 367.3 18.6 348.3 14.4C 332.1 10.8 315.1 10 298 10C 271.6 10 246.2 14.5 221.7 20.2C 194.7 26.5 170.1 39.1 146.8 52.8C 126.5 64.8 108.1 79.7 92 96.7C 74.9 114.7 61.3 135.5 47.3 156.2C 34.4 175.3 25.4 197.4 20.6 220.5C 15.3 245.5 12 271.2 10 298C 8.2 322.7 14.8 346.5 19 369.8C 23.2 392.8 32 414.8 44.2 434.2C 56.9 454.3 70.5 473.4 85.1 491.9C 99.8 510.7 119 525.8 139.3 538.4C 160.8 551.7 183.2 564.2 207.9 571.6C 236.4 580.3 266.5 584.8 298 586M 298 586C 317.6 585.6 336.8 583.9 354.7 578.5C 373.7 572.7 391.3 564.3 408.6 555.6C 425 547.3 439.5 535.2 451.8 521.7C 464.1 508.2 476.8 494.5 485 478.1C 494.1 460.2 503.1 442 507.7 421.9C 511.6 405.2 515.1 387.9 514 370C 512.7 348.3 509.9 327.5 504.8 307.5C 498.6 283 487.2 260.1 471.4 241.1C 456.5 223.4 440.6 206.6 421.8 193C 404.8 180.6 385.7 170.9 365.1 164.6C 343.9 158.2 321.4 155.8 298 154C 279.3 152.6 261 156.3 243.7 160.9C 228.5 164.9 213.3 169.5 200.1 177.4C 187.6 184.9 174.2 191.1 163.7 200.8C 152.7 211 140.9 220.2 131.8 232C 120.9 246.1 111 261 102.9 277.2C 95.4 292.3 88.9 308.5 86.5 325.7C 84.6 340.2 81.2 354.8 82 370C 83.6 399.7 88.9 427.7 98.9 453.8C 108 478 124.5 498 140.5 517.8C 160 542 187.5 559.4 217.1 570.3C 242.4 579.7 269.4 585.6 298 586"></path></g></g></g><g id="g-root-sy_3_cu_cu_1umsm4w1wvqn0m-fill" data-item-order="999813376" transform="translate(91.33575439453125, 155.003173828125)"><g id="sy_3_cu_cu_1umsm4w1wvqn0m-fill-merged" stroke="none" fill="#d1f4ff" fill-opacity="1"><g><path d="M 211 8.5L 200 8.9L 199.2 28.9L 211.8 28.5ZM 199.2 28.9L 303.7 41.1L 304.2 21L 200 8.9ZM 304.2 21L 116.1 34L 116.6 54L 303.7 41.1ZM 116.6 54L 342.2 58.2L 341.4 38.2L 116.1 34ZM 341.4 38.2L 83.3 64.3L 84.6 84.3L 342.2 58.2ZM 84.6 84.3L 365.8 75.8L 364.5 55.8L 83.3 64.3ZM 364.5 55.8L 54.7 87.4L 56.1 107.4L 365.8 75.8ZM 56.1 107.4L 383.1 94.8L 381.8 74.9L 54.7 87.4ZM 381.8 74.9L 39.9 104L 41 124L 383.1 94.8ZM 41 124L 404.4 112.3L 403.2 92.4L 39.9 104ZM 403.2 92.4L 26.4 126.1L 27.6 146.1L 404.4 112.3ZM 27.6 146.1L 417.2 133.1L 415.9 113.1L 26.4 126.1ZM 415.9 113.1L 20.5 154.1L 20.3 174.2L 417.2 133.1ZM 20.3 174.2L 145.2 188.9L 145.3 168.7L 20.5 154.1ZM 145.3 168.7L 18.4 182.4L 18.3 202.6L 145.2 188.9ZM 18.3 202.6L 115.7 214L 115.9 193.8L 18.4 182.4ZM 115.9 193.8L 10.9 203.8L 10.8 223.9L 115.7 214ZM 10.8 223.9L 96.5 232.7L 97.1 212.7L 10.9 203.8ZM 97.1 212.7L 12.2 216L 10.3 236.1L 96.5 232.7ZM 10.3 236.1L 90.7 255.3L 92.5 235.2L 12.2 216ZM 92.5 235.2L 14.3 239.3L 12.4 259.4L 90.7 255.3ZM 12.4 259.4L 87 277.7L 88.8 257.5L 14.3 239.3ZM 88.8 257.5L 14.8 262.3L 12.8 282.5L 87 277.7ZM 12.8 282.5L 80.3 300.7L 81.8 280.4L 14.8 262.3ZM 81.8 280.4L 28.1 286.4L 26.6 306.7L 80.3 300.7ZM 26.6 306.7L 78 320.4L 80.4 300.3L 28.1 286.4ZM 80.4 300.3L 29.4 301.5L 25.9 321.6L 78 320.4ZM 25.9 321.6L 80.4 343L 83.2 322.6L 29.4 301.5ZM 83.2 322.6L 45.8 326.3L 43.2 346.6L 80.4 343ZM 43.2 346.6L 89.2 363.3L 93.5 343.6L 45.8 326.3ZM 93.5 343.6L 59.4 340.6L 53.5 360.2L 89.2 363.3ZM 53.5 360.2L 97.8 384.5L 100.8 363.3L 59.4 340.6ZM 100.8 363.3L 77.1 368.7L 75.6 389.6L 97.8 384.5ZM 75.6 389.6L 114.8 404.4L 118.3 384.3L 77.1 368.7ZM 118.3 384.3L 102 384.7L 97.2 404.8L 114.8 404.4ZM 97.2 404.8L 137.6 426.4L 146.4 408.5L 102 384.7ZM 146.4 408.5L 134 402.9L 126.8 421.6L 137.6 426.4ZM 126.8 421.6L 185.1 440.3L 188.6 420.4L 134 402.9ZM 188.6 420.4L 157.6 419.2L 156.8 439.1L 185.1 440.3ZM 421.4 143.3L 286.1 150.4L 286.2 170.5L 422.5 163.3ZM 286.2 170.5L 433.6 176.2L 432.6 156.1L 286.1 150.4ZM 432.6 156.1L 316.1 172.9L 317 193L 433.6 176.2ZM 317 193L 440.3 198.9L 439.8 178.8L 316.1 172.9ZM 439.8 178.8L 338.6 188.9L 338.4 209.1L 440.3 198.9ZM 338.4 209.1L 435.5 221.4L 435.8 201.3L 338.6 188.9ZM 435.8 201.3L 349.6 209.6L 349.2 229.8L 435.5 221.4ZM 349.2 229.8L 440 242.5L 440 222.3L 349.6 209.6ZM 440 222.3L 361.6 233L 361.1 253.3L 440 242.5ZM 361.1 253.3L 436 267.4L 436.9 247.2L 361.6 233ZM 436.9 247.2L 368.9 253.9L 367.4 274.1L 436 267.4ZM 367.4 274.1L 428.8 289.2L 430.7 269.1L 368.9 253.9ZM 430.7 269.1L 374.5 272.1L 372.6 292.3L 428.8 289.2ZM 372.6 292.3L 426.8 305.7L 428.4 285.5L 374.5 272.1ZM 428.4 285.5L 369.7 290.8L 367.4 311.1L 426.8 305.7ZM 367.4 311.1L 417.9 327.6L 419.8 307.2L 369.7 290.8ZM 419.8 307.2L 375.4 312.6L 370.8 333.3L 417.9 327.6ZM 370.8 333.3L 401.9 352.8L 406.2 331.9L 375.4 312.6ZM 406.2 331.9L 368.2 337.9L 362.1 359.1L 401.9 352.8ZM 362.1 359.1L 383 377.5L 388.9 356L 368.2 337.9ZM 388.9 356L 358.4 363.2L 343.5 381.6L 342.3 389.4L 337 392.1L 327 397.7L 317.6 406.9L 307.2 409.9L 312.8 429.1L 320.6 426.9L 335.5 416.3L 340.3 409.6L 343.3 409.4L 362.3 388.4L 362.1 381.5L 383 377.5ZM 250.6 437.2L 242.2 437.5L 242.8 457.5L 251.2 457.2Z" fill-rule="nonzero"></path></g></g></g><g id="g-root-sy_3_cu_cu_1umsm4w1wvqn0m-stroke" data-item-order="999813376" transform="translate(91.33575439453125, 155.003173828125)"><g id="sy_3_cu_cu_1umsm4w1wvqn0m-stroke" fill="none" stroke-linecap="round" stroke-linejoin="round" stroke-miterlimit="4" stroke="#484848" stroke-width="4" stroke-opacity="1"><g><path d="M 226 442C 345.2935 442 442 345.2935 442 226C 442 106.7065 345.2935 10 226 10C 106.7065 10 10 106.7065 10 226C 10 345.2935 106.7065 442 226 442ZM 226 442C 146.471 442 82 377.529 82 298C 82 218.471 146.471 154 226 154C 305.529 154 370 218.471 370 298C 370 377.529 305.529 442 226 442ZM 226 442C 240.2 441.1 254.2 441.3 267.5 438C 281.3 434.6 295.4 432.5 307.6 426C 319.6 419.7 331.4 413.5 343.3 407.4C 355.3 401.3 365.3 391.8 374.9 382.5C 384.2 373.4 393.8 364.4 400.5 353.3C 408.2 340.5 418 328.7 423.1 314.5C 428.4 299.6 435.9 285 437.7 268.9C 439.4 254.8 441.9 240.7 442 226C 442.2 202.3 439.2 179.1 431.1 158.1C 423 136.9 413.5 116.6 400.5 98.6C 388.2 81.7 373.6 66.5 356.8 54.1C 339.4 41.3 320 31.7 299.9 23C 277.4 13.2 252 10.4 226 10C 211.8 9.8 198.1 12.4 184.5 14C 171.1 15.6 158.9 21.6 146.2 25.2C 131.5 29.4 118.4 37.8 106 46.4C 94.4 54.4 82.3 62 73.6 73C 64.3 84.6 51.9 94.1 45.4 107.5C 39.7 119.1 31.5 129.4 27.1 141.7C 21.9 156.1 16.8 170.7 13.7 186.1C 11.1 199 8.8 212.4 10 226C 11.8 246.7 13.5 266.6 18.4 285.8C 22.9 303.7 30.8 320.4 40 335.9C 49.7 352.2 62.3 366.4 75 380.4C 88 394.8 105.2 404.5 121.6 415.1C 137.2 425.3 155.4 431.7 174.1 435.7C 190.9 439.4 208.2 443.1 226 442M 226 442C 209.3 442.3 193.8 437.3 178.3 433.9C 163.5 430.6 150.5 421.8 138.8 412.6C 126.7 403.1 116.1 391.8 107.1 379.2C 98.4 367.1 90.8 353.6 87.8 338.7C 85.2 325.5 83.5 312.1 82 298C 79.9 278.3 86 259.2 93.3 242C 100 226.2 108.1 210.4 121.1 199.4C 136.6 186.3 152.3 173.5 171 164.9C 187.7 157.1 206.6 155.7 226 154C 239 152.9 251.5 156.9 263.8 159C 275.8 161.1 287.3 165.9 297.1 172.8C 306.4 179.3 316.4 184.9 324.4 192.9C 334 202.4 342.9 212.8 349.9 224.5C 355.9 234.7 360.6 245.7 364.1 257.2C 368.1 270.1 369.8 283.8 370 298C 370.1 310.1 368.8 322 365.7 333.2C 362 346 358.2 358.8 351 369.6C 344.8 378.9 339.3 389 331 396.5C 321.9 404.8 313.4 414.2 302.4 420.1C 291 426.2 279.6 432.8 266.8 436.1C 253.8 439.5 240.1 443.2 226 442"></path></g></g></g><g id="g-root-sy_2_cu_cu_1q6z40g1wvqnsw-fill" data-item-order="999917056" transform="translate(163.33575439453125, 299.003173828125)"><g id="sy_2_cu_cu_1q6z40g1wvqnsw-fill-merged" stroke="none" fill="#c8ffe5" fill-opacity="1"><g><path d="M180.6 11.9L133.7 5.6L130.2 25.4L177.9 31.7L180.6 11.9 M130.2 25.4L225.1 46L227.5 26L133.7 5.6L130.2 25.4 M227.5 26L77.7 22.5L76.2 42.5L225.1 46L227.5 26 M76.2 42.5L255.3 66.4L256.3 46.4L77.7 22.5L76.2 42.5 M256.3 46.4L50.8 52L50.3 72L255.3 66.4L256.3 46.4 M50.3 72L273.6 89.2L274.4 69.2L50.8 52L50.3 72 M274.4 69.2L32.6 68.1L31.5 88.1L273.6 89.2L274.4 69.2 M31.5 88.1L283.6 113.1L284.5 93.1L32.6 68.1L31.5 88.1 M284.5 93.1L18.4 97L17.9 117L283.6 113.1L284.5 93.1 M17.9 117L291.7 132.7L292.1 112.6L18.4 97L17.9 117 M292.1 112.6L16.9 116.9L16.2 136.9L291.7 132.7L292.1 112.6 M16.2 136.9L296.4 162.5L297.3 142.5L16.9 116.9L16.2 136.9 M297.3 142.5L158.7 143.3L157.5 163.3L296.4 162.5L297.3 142.5 M157.5 163.3L291.8 180L293.3 160L158.7 143.3L157.5 163.3 M293.3 160L210.6 157.9L208 177.9L291.8 180L293.3 160 M208 177.9L294.6 198.7L296.4 178.6L210.6 157.9L208 177.9 M296.4 178.6L220.7 182.4L218 202.6L294.6 198.7L296.4 178.6 M218 202.6L281.4 223.4L283.5 203.1L220.7 182.4L218 202.6 M283.5 203.1L231.1 208.7L228 229.2L281.4 223.4L283.5 203.1 M228 229.2L263.3 244.4L268 224.7L231.1 208.7L228 229.2 M268 224.7L228.1 222.5L219.5 242.1L263.3 244.4L268 224.7 M219.5 242.1L248.7 270.3L257.1 250.6L228.1 222.5L219.5 242.1 M257.1 250.6L229.6 251.8L212.7 263.7L208.6 270.1L194.2 275.5L201.4 294.2L212.9 289.8L228.6 273.3L229.7 269.8L248.7 270.3L257.1 250.6 M151 141.9L16 137.2L12.8 157.1L150.3 161.8L151 141.9 M12.8 157.1L99.6 182.2L102.3 162.1L16 137.2L12.8 157.1 M102.3 162.1L14 163L11.3 183.1L99.6 182.2L102.3 162.1 M11.3 183.1L84.2 203.5L87.3 183.7L14 163L11.3 183.1 M87.3 183.7L21.8 180.8L17.5 200.7L84.2 203.5L87.3 183.7 M17.5 200.7L81.7 226.1L86.1 206.3L21.8 180.8L17.5 200.7 M86.1 206.3L32.4 203.4L27.7 223.2L81.7 226.1L86.1 206.3 M27.7 223.2L79.5 246L83.9 226.1L32.4 203.4L27.7 223.2 M83.9 226.1L39.5 225.2L34.7 245.1L79.5 246L83.9 226.1 M34.7 245.1L82.5 268.7L88.3 249.3L39.5 225.2L34.7 245.1 M88.3 249.3L59.8 245.8L52.9 265.1L82.5 268.7L88.3 249.3 M52.9 265.1L96.4 293.1L107.9 276.7L59.8 245.8L52.9 265.1 M107.9 276.7L101.7 271.9L89.5 287.7L96.4 293.1L107.9 276.7 M160.2 293.7L150.9 295.1L153.9 314.9L163.2 313.5L160.2 293.7" fill-rule="nonzero"></path></g></g></g><g id="g-root-sy_2_cu_cu_1q6z40g1wvqnsw-stroke" data-item-order="999917056" transform="translate(163.33575439453125, 299.003173828125)"><g id="sy_2_cu_cu_1q6z40g1wvqnsw-stroke" fill="none" stroke-linecap="round" stroke-linejoin="round" stroke-miterlimit="4" stroke="#484848" stroke-width="4" stroke-opacity="1"><g><path d="M 154 298C 233.529 298 298 233.529 298 154C 298 74.471 233.529 10 154 10C 74.471 10 10 74.471 10 154C 10 233.529 74.471 298 154 298ZM 154 298C 114.2355 298 82 265.7645 82 226C 82 186.2355 114.2355 154 154 154C 193.7645 154 226 186.2355 226 226C 226 265.7645 193.7645 298 154 298ZM 154 298C 178.5 298.4 202.4 293.2 221.9 281C 243.8 267.4 263.4 250.5 277.1 228.7C 290.7 207.1 296.2 181.3 298 154C 299.3 133.7 293.4 114.4 286.1 96.7C 279 79.2 267.8 63.7 254.4 50.8C 240.9 37.7 224.1 28.9 207.1 20.1C 191.4 12 172.7 12 154 10C 130 7.5 106.7 15.1 87.2 26.4C 63.7 40 43 58.1 29.6 81.5C 17.3 102.9 8.3 127.6 10 154C 11 169.8 12 185.3 17.3 199.3C 23 214.5 30.7 228.5 39.7 241.6C 48.7 254.6 60.2 266.3 74.1 273.8C 86.5 280.5 98.3 289.7 112.4 291.9C 126 294 139.6 298.7 154 298M 154 298C 135.1 299.7 117 291.5 104.9 278.7C 91.7 264.6 81.8 246.8 82 226C 82.1 212.9 84.2 199.6 91.7 189.9C 99.2 180.3 105.6 168.7 117 164.2C 128.7 159.6 140.5 154.9 154 154C 166.2 153.2 177 158.7 187.8 162.4C 199 166.2 206.6 176.4 213.7 185.7C 222.1 196.8 227.1 211.1 226 226C 224.4 246.7 216.7 264.8 203.3 278.5C 190.9 291.1 173 299.8 154 298"></path></g></g></g><g id="g-root-sy_1_cu_cu_1q6z40g1wvqnsy-fill" data-item-order="999979264" transform="translate(235.33575439453125, 443.0032958984375)"><g id="sy_1_cu_cu_1q6z40g1wvqnsy-fill-merged" stroke="none" fill="#e9ffb9" fill-opacity="1"><g><path d="M148.6 114.4L159.3 95L142.3 84.6L131.1 104.7L148.6 114.4 M142.3 84.6L104.8 140.2L123.3 148.4L159.3 95L142.3 84.6 M123.3 148.4L147.8 48.6L128.9 41.6L104.8 140.2L123.3 148.4 M128.9 41.6L74.4 148.9L93 156.5L147.8 48.6L128.9 41.6 M93 156.5L133.4 28.8L114.8 21.2L74.4 148.9L93 156.5 M114.8 21.2L53.3 144.3L71.9 151.7L133.4 28.8L114.8 21.2 M71.9 151.7L112.4 15.3L93.6 8.3L53.3 144.3L71.9 151.7 M93.6 8.3L34.2 140.1L53.2 146.7L112.4 15.3L93.6 8.3 M53.2 146.7L86.8 12.9L67.9 6L34.2 140.1L53.2 146.7 M67.9 6L13.7 118.7L32.2 126.2L86.8 12.9L67.9 6 M32.2 126.2L66 23.5L48 14.1L13.7 118.7L32.2 126.2 M48 14.1L5.6 71.2L24.3 79.5L66 23.5L48 14.1 M24.3 79.5L29.3 54.9L9.7 50.9L5.6 71.2L24.3 79.5" fill-rule="nonzero"></path></g></g></g><g id="g-root-sy_1_cu_cu_1q6z40g1wvqnsy-stroke" data-item-order="999979264" transform="translate(235.33575439453125, 443.0032958984375)"><g id="sy_1_cu_cu_1q6z40g1wvqnsy-stroke" fill="none" stroke-linecap="round" stroke-linejoin="round" stroke-miterlimit="4" stroke="#484848" stroke-width="4" stroke-opacity="1"><g><path d="M 154 82C 154 121.7645 121.7645 154 82 154C 42.2355 154 10 121.7645 10 82C 10 42.2355 42.2355 10 82 10C 121.7645 10 154 42.2355 154 82ZM 154 82C 152.4 100.3 145.9 116.1 135.8 129.8C 124 145.8 103.4 152.6 82 154C 60.6 155.4 42.2 143.6 28 129.6C 16 117.8 8.4 100.2 10 82C 11.6 63.5 16.4 46 28.5 33.8C 42.3 19.8 60.8 10.7 82 10C 100.5 9.4 117 17.4 130.2 28.5C 145.2 41.2 155.8 60.8 154 82"></path></g></g></g><g id="g-root-ic_16_2r0gg1wvthq8-fill" data-item-order="1000000000" transform="translate(283.33575439453125, 59.003173828125)"></g><g id="g-root-ic_16_2r0gg1wvthq8-stroke" data-item-order="1000000000" transform="translate(283.33575439453125, 59.003173828125)"><g id="ic_16_2r0gg1wvthq8-stroke" fill="none" stroke-linecap="round" stroke-linejoin="round" stroke-miterlimit="4" stroke="#484848" stroke-width="2" stroke-opacity="1"><g><path d="M 10 10M 54.99548 51.995781L 54.99548 15.999397C 54.99548 14.342704 53.652416 12.999699 51.995781 12.999699L 15.999397 12.999699C 14.342704 12.999699 12.999699 14.342704 12.999699 15.999397L 12.999699 51.995781C 12.999699 53.652416 14.342704 54.99548 15.999397 54.99548L 51.995781 54.99548C 53.652416 54.99548 54.99548 53.652416 54.99548 51.995781ZM 10 10M 54.99548 26.998293L 12.999699 26.998293M 10 10M 54.99548 40.996887L 12.999699 40.996887M 10 10M 33.997589 54.99548L 33.997589 12.999699M 10 10M 54.99548 51.995781C 55.595417 39.996986 54.795502 27.998192 54.99548 15.999397C 54.99548 14.399558 53.595619 13.199678 51.995781 12.999699C 39.996986 11.999799 27.398252 16.599337 15.999397 12.999699C 14.399558 12.599739 13.399658 14.399558 12.999699 15.999397C 10.39996 27.798212 13.999599 39.996986 12.999699 51.995781C 12.799719 53.595619 14.399558 55.395443 15.999397 54.99548C 27.798212 52.595718 39.996986 54.795502 51.995781 54.99548C 53.595619 54.99548 55.595417 53.595619 54.99548 51.995781M 10 10M 54.99548 26.998293C 41.196869 29.39805 26.598333 23.598635 12.999699 26.998293M 10 10M 54.99548 40.996887C 40.996887 40.596928 26.998293 40.796906 12.999699 40.996887M 10 10M 33.997589 54.99548C 30.797911 41.396847 33.397648 26.998293 33.997589 12.999699"></path></g></g></g><g id="g-root-ic_jump_4ikikw1wvtgxz-fill" data-item-order="1000000000" transform="translate(283.33575439453125, 203.003173828125)"></g><g id="g-root-ic_jump_4ikikw1wvtgxz-stroke" data-item-order="1000000000" transform="translate(283.33575439453125, 203.003173828125)"><g id="ic_jump_4ikikw1wvtgxz-stroke" fill="none" stroke-linecap="round" stroke-linejoin="round" stroke-miterlimit="4" stroke="#484848" stroke-width="2" stroke-opacity="1"><g><path d="M 21.998795 10.9999L 45.996384 10.9999M 24.998493 10.9999L 24.998493 14.999497M 42.996685 10.9999L 42.996685 14.999497M 12.999699 32.997688L 54.99548 32.997688C 54.99548 32.997688 56.995281 32.997688 56.995281 34.99749L 56.995281 38.997086C 56.995281 38.997086 56.995281 40.996887 54.99548 40.996887L 12.999699 40.996887C 12.999699 40.996887 10.9999 40.996887 10.9999 38.997086L 10.9999 34.99749C 10.9999 34.99749 10.9999 32.997688 12.999699 32.997688M 12.999699 40.996887L 12.999699 56.995281M 54.99548 40.996887L 54.99548 56.995281M 17.999197 18.999096L 49.995983 18.999096C 49.995983 18.999096 50.995884 18.999096 50.995884 19.998995L 50.995884 23.998594C 50.995884 23.998594 50.995884 24.998493 49.995983 24.998493L 17.999197 24.998493C 17.999197 24.998493 16.999296 24.998493 16.999296 23.998594L 16.999296 19.998995C 16.999296 19.998995 16.999296 18.999096 17.999197 18.999096M 18.999096 24.998493L 18.999096 28.998093M 48.996082 24.998493L 48.996082 28.998093M 18.999096 40.996887L 18.999096 47.996185M 48.996082 40.996887L 48.996082 47.996185M 10.9999 56.995281L 14.999497 56.995281M 16.999296 47.996185L 20.998896 47.996185M 46.996284 47.996185L 50.995884 47.996185M 52.995682 56.995281L 56.995281 56.995281M 21.998795 10.9999C 29.997992 10.79992 38.19717 12.799719 45.996384 10.9999M 24.998493 10.9999C 24.998493 12.399759 25.398453 13.799619 24.998493 14.999497M 42.996685 10.9999C 43.396648 12.19978 43.596622 13.799619 42.996685 14.999497M 12.999699 32.997688C 26.798311 31.197872 41.196869 35.397449 54.99548 32.997688C 54.99548 32.997688 56.595318 32.997688 56.995281 34.99749C 57.395241 36.197369 57.595219 37.797207 56.995281 38.997086C 56.995281 38.997086 56.995281 41.196869 54.99548 40.996887C 40.996887 39.797005 26.998293 41.196869 12.999699 40.996887C 12.999699 40.996887 11.19988 40.996887 10.9999 38.997086C 10.9999 37.597229 10.599939 36.197369 10.9999 34.99749C 10.9999 34.99749 10.9999 33.19767 12.999699 32.997688M 12.999699 40.996887C 13.399658 46.396347 13.999599 51.795799 12.999699 56.995281M 54.99548 40.996887C 53.795601 46.196365 54.59552 51.595821 54.99548 56.995281M 17.999197 18.999096C 28.598133 18.599136 39.397045 18.199177 49.995983 18.999096C 49.995983 18.999096 50.595921 18.999096 50.995884 19.998995C 51.395844 21.198875 50.995884 22.598736 50.995884 23.998594C 50.995884 23.998594 50.995884 24.998493 49.995983 24.998493C 39.397045 25.398453 28.598133 24.598534 17.999197 24.998493C 17.999197 24.998493 16.999296 24.998493 16.999296 23.998594C 16.999296 22.598736 16.999296 21.398855 16.999296 19.998995C 16.999296 19.998995 16.999296 18.799116 17.999197 18.999096M 18.999096 24.998493C 18.599136 26.198374 19.399055 27.798212 18.999096 28.998093M 48.996082 24.998493C 48.596123 26.198374 48.596123 27.798212 48.996082 28.998093M 18.999096 40.996887C 19.599035 43.196667 18.199177 45.796402 18.999096 47.996185M 48.996082 40.996887C 48.596123 43.196667 49.196064 45.596424 48.996082 47.996185M 10.9999 56.995281C 12.19978 56.595318 13.599638 56.7953 14.999497 56.995281M 16.999296 47.996185C 18.199177 48.396145 19.799015 47.596222 20.998896 47.996185M 46.996284 47.996185C 48.396145 47.996185 49.59602 47.996185 50.995884 47.996185M 52.995682 56.995281C 54.395542 56.995281 55.595417 56.7953 56.995281 56.995281"></path></g></g></g><g id="g-root-ic_milk_1q6z40g1wvtg5p-fill" data-item-order="1000000000" transform="translate(283.33575439453125, 347.003173828125)"></g><g id="g-root-ic_milk_1q6z40g1wvtg5p-stroke" data-item-order="1000000000" transform="translate(283.33575439453125, 347.003173828125)"><g id="ic_milk_1q6z40g1wvtg5p-stroke" fill="none" stroke-linecap="round" stroke-linejoin="round" stroke-miterlimit="4" stroke="#484848" stroke-width="2" stroke-opacity="1"><g><path d="M 27.998192 10.9999L 39.996986 10.9999C 39.996986 10.9999 40.996887 10.9999 40.996887 11.999799L 40.996887 15.999397C 40.996887 15.999397 40.996887 16.999296 39.996986 16.999296L 27.998192 16.999296C 27.998192 16.999296 26.998293 16.999296 26.998293 15.999397L 26.998293 11.999799C 26.998293 11.999799 26.998293 10.9999 27.998192 10.9999M 28.998093 16.999296L 28.998093 24.678526C 28.981615 25.466419 28.50395 26.171171 27.778215 26.478344C 22.718723 28.718119 20.998896 33.417648 20.998896 38.997086L 20.998896 50.995884C 20.998896 54.309258 23.684917 56.995281 26.998293 56.995281L 40.996887 56.995281C 44.310265 56.995281 46.996284 54.309258 46.996284 50.995884L 46.996284 38.997086C 46.996284 33.417648 45.276455 28.718119 40.216965 26.478344C 39.49123 26.171171 39.013565 25.466419 38.997086 24.678526L 38.997086 16.999296M 27.998192 34.99749L 39.996986 34.99749C 39.996986 34.99749 40.996887 34.99749 40.996887 35.997387L 40.996887 39.996986C 40.996887 39.996986 40.996887 40.996887 39.996986 40.996887L 27.998192 40.996887C 27.998192 40.996887 26.998293 40.996887 26.998293 39.996986L 26.998293 35.997387C 26.998293 35.997387 26.998293 34.99749 27.998192 34.99749M 27.998192 10.9999C 31.997791 11.19988 35.997387 10.599939 39.996986 10.9999C 39.996986 10.9999 41.196869 10.9999 40.996887 11.999799C 40.796906 13.399658 41.196869 14.599538 40.996887 15.999397C 40.996887 15.999397 40.996887 16.999296 39.996986 16.999296C 35.997387 17.399258 31.79781 17.999197 27.998192 16.999296C 27.998192 16.999296 27.198273 16.999296 26.998293 15.999397C 26.798311 14.599538 27.198273 13.199678 26.998293 11.999799C 26.998293 11.999799 26.998293 10.599939 27.998192 10.9999M 28.998093 16.999296C 29.198072 19.599035 28.798111 22.198774 28.998093 24.598534C 28.998093 25.398453 28.598133 26.198374 27.798212 26.398352C 22.398754 27.798212 20.998896 33.397648 20.998896 38.997086C 20.998896 42.996685 21.598835 46.996284 20.998896 50.995884C 20.598936 54.19556 23.798615 57.595219 26.998293 56.995281C 31.597832 55.99538 36.397346 56.195362 40.996887 56.995281C 44.196568 57.395241 46.796303 54.19556 46.996284 50.995884C 47.396244 46.996284 47.796204 42.996685 46.996284 38.997086C 45.996384 33.59763 45.196465 28.998093 40.196968 26.398352C 39.597027 26.198374 38.997086 25.398453 38.997086 24.598534C 39.197067 22.198774 38.59713 19.599035 38.997086 16.999296M 27.998192 34.99749C 31.997791 34.197571 36.197369 35.997387 39.996986 34.99749C 39.996986 34.99749 41.196869 34.99749 40.996887 35.997387C 40.796906 37.397247 41.396847 38.797108 40.996887 39.996986C 40.996887 39.996986 40.996887 41.396847 39.996986 40.996887C 36.197369 39.597027 31.997791 41.396847 27.998192 40.996887C 27.998192 40.996887 26.798311 40.996887 26.998293 39.996986C 27.398252 38.797108 26.998293 37.397247 26.998293 35.997387C 26.998293 35.997387 26.998293 35.397449 27.998192 34.99749"></path></g></g></g><g id="g-root-ic_2_qssemo1wvqmmd-fill" data-item-order="1000000000" transform="translate(283.33575439453125, 491.003173828125)"></g><g id="g-root-ic_2_qssemo1wvqmmd-stroke" data-item-order="1000000000" transform="translate(283.33575439453125, 491.003173828125)"><g id="ic_2_qssemo1wvqmmd-stroke" fill="none" stroke-linecap="round" stroke-linejoin="round" stroke-miterlimit="4" stroke="#484848" stroke-width="2" stroke-opacity="1"><g><path d="M 15.9774 14.547544L 15.9774 53.447636C 15.97811 54.1688 16.36705 54.833721 16.995302 55.187813C 17.623552 55.541904 18.393787 55.530308 19.011095 55.157463L 51.14587 35.709419C 51.745403 35.347332 52.111816 34.697983 52.111816 33.997589C 52.111816 33.297199 51.745403 32.647846 51.14587 32.285763L 19.011095 12.837715C 18.393787 12.464872 17.623552 12.453276 16.995302 12.807366C 16.36705 13.161456 15.97811 13.826379 15.9774 14.547544ZM 15.999397 14.599538C 15.399458 27.598232 12.19978 40.996887 15.999397 53.395641C 16.199377 54.19556 16.399357 54.99548 16.999296 55.195461C 17.599237 55.395443 18.399157 55.395443 18.999096 55.195461C 31.197872 52.395744 39.197067 39.797005 51.195862 35.797409C 51.795799 35.397449 51.995781 34.59753 52.195763 33.997589C 52.195763 33.397648 51.795799 32.397751 51.195862 32.197773C 38.997086 29.198072 27.798212 21.798815 18.999096 12.799719C 18.599136 12.399759 17.599237 12.599739 16.999296 12.799719C 16.399357 12.999699 15.999397 13.799619 15.999397 14.599538"></path></g></g></g></g></g></svg>