<?xml version="1.0" encoding="utf-8" standalone="yes"?>
<!DOCTYPE svg PUBLIC "-//W3C//DTD SVG 1.1//EN" "http://www.w3.org/Graphics/SVG/1.1/DTD/svg11.dtd">
<svg style="fill:none;stroke:none;fill-rule:evenodd;clip-rule:evenodd;stroke-linecap:round;stroke-linejoin:round;stroke-miterlimit:1.5;" version="1.1" xmlns="http://www.w3.org/2000/svg" xmlns:xlink="http://www.w3.org/1999/xlink" width="287" height="424" viewBox="0 0 287 424"><g id="items" style="isolation: isolate"><g id="blend" style="mix-blend-mode: normal"><g id="g-root-sy_0a_cu_vector_90ve9r1rm3z7m-fill" data-item-order="-91002" transform="translate(109, 338)"><g id="sy_0a_cu_vector_90ve9r1rm3z7m-fill-merged" stroke="none" fill="#ebebeb" fill-opacity="1"><g><path d="M63.2 38.7L66.5 29L48.3 20.2L44.3 32.2L63.2 38.7 M48.3 20.2L24.1 56.8L43.5 63.9L66.5 29L48.3 20.2 M43.5 63.9L49.4 12.4L30 5.5L24.1 56.8L43.5 63.9 M30 5.5L9.1 38L30.1 42.3L49.4 12.4L30 5.5 M30.1 42.3L26.8 22.3L7.1 25.6L9.1 38L30.1 42.3" fill-rule="nonzero"></path></g></g></g><g id="g-root-sy_0a_cu_vector_90ve9r1rm3z7m-stroke" data-item-order="-91002" transform="translate(109, 338)"><g id="sy_0a_cu_vector_90ve9r1rm3z7m-stroke" fill="none" stroke-linecap="round" stroke-linejoin="round" stroke-miterlimit="4" stroke="#484848" stroke-width="4" stroke-opacity="1"><g><path d="M 64 31.7778C 64 46.8122 51.9117 59 37 59C 22.0883 59 10 46.8122 10 31.7778C 10.000001 22.8728 14.2409 14.9666 20.7974 10L 53.2026 10C 59.7592 14.9666 64 22.8729 64 31.7778ZM 64 31.8C 65.7 46.7 51.9 59.3 37 59C 22.1 58.7 10 46.8 10 31.8C 10 22.9 15.1 15.9 20.8 10C 31.6 10.8 42.5 8.7 53.2 10C 59.6 15.2 64.2 22.9 64 31.8"></path></g></g></g><g id="g-root-sy_0b_cu_58e0v1rm400b-fill" data-item-order="-90998" transform="translate(40, 14)"><g id="sy_0b_cu_58e0v1rm400b-fill-merged" stroke="none" fill="#ebebeb" fill-opacity="1"><g><path d="M188.1 105.2L192.9 96.1L176.9 83.7L170.4 95.8L188.1 105.2 M176.9 83.7L148.2 109.7L166.5 120.1L192.9 96.1L176.9 83.7 M166.5 120.1L176.5 70.1L157.5 62.8L148.2 109.7L166.5 120.1 M157.5 62.8L129.1 110.1L148.9 116.1L176.5 70.1L157.5 62.8 M148.9 116.1L151.1 71L131.2 70L129.1 110.1L148.9 116.1 M135.3 45.7L136.2 36.1L117 26.7L115.4 43.7L135.3 45.7 M117 26.7L95.1 47.4L115.9 55.3L136.2 36.1L117 26.7 M115.9 55.3L111.7 8.5L91.8 10.3L95.1 47.4L115.9 55.3 M68.6 120.1L67.7 58.8L47.6 54.8L48.6 120.4L68.6 120.1 M47.6 54.8L23.1 112L42.7 117L67.7 58.8L47.6 54.8 M42.7 117L48.4 55.2L28.9 49.2L23.1 112L42.7 117 M28.9 49.2L5.9 91.2L25.7 96.7L48.4 55.2L28.9 49.2 M25.7 96.7L26.2 84.6L6.2 83.7L5.9 91.2L25.7 96.7" fill-rule="nonzero"></path></g></g></g><g id="g-root-sy_0b_cu_58e0v1rm400b-stroke" data-item-order="-90998" transform="translate(40, 14)"><g id="sy_0b_cu_58e0v1rm400b-stroke" fill="none" stroke-linecap="round" stroke-linejoin="round" stroke-miterlimit="4" stroke="#484848" stroke-width="4" stroke-opacity="1"><g><path d="M 130 94C 130 77.4315 143.4315 64 160 64C 176.5685 64 190 77.4315 190 94C 190 103.8136 185.2879 112.5266 178.0029 118L 141.9971 118C 134.7121 112.5266 130 103.8136 130 94ZM 130 34C 130 47.2548 119.2548 58 106 58C 92.7452 58 82 47.2548 82 34C 82 20.7452 92.7452 10 106 10C 119.2548 10 130 20.7452 130 34ZM 82 88C 82 68.1177 65.8823 52 46 52C 26.1177 52 10 68.1177 10 88C 10 100.5218 16.3931 111.5505 26.0932 118L 65.9068 118C 75.6069 111.5505 82 100.5218 82 88ZM 130 94C 130.5 77.4 143.4 63.4 160 64C 176.6 64.6 191 77.5 190 94C 189.4 103.8 185 112.2 178 118C 166 117.5 153.9 116.1 142 118C 135.5 111.6 131.8 103.7 130 94M 130 34C 131.1 47.2 119.2 56.6 106 58C 92.8 59.4 80.8 47.2 82 34C 83.2 20.8 92.8 8.3 106 10C 119.1 11.7 131.7 20.8 130 34M 82 88C 82.4 68.1 65.9 51.3 46 52C 26.1 52.7 9.1 68.1 10 88C 10.6 100.5 15.5 113.1 26.1 118C 39.4 117.8 52.6 118.2 65.9 118C 74.9 110.6 82.2 100.5 82 88"></path></g></g></g><g id="g-root-sy_3_cu_Vector_1uqixvj1rm40lg-fill" data-item-order="-90994" transform="translate(84.33203125, 266)"><g id="sy_3_cu_Vector_1uqixvj1rm40lg-fill-merged" stroke="none" fill="#e9ffb9" fill-opacity="1"><g><path d="M13.868 10.4L12.768 12.3L25.068 30.8L31.168 20.5L13.868 10.4 M25.068 30.8L57.568 26.4L50.068 7.3L12.768 12.3L25.068 30.8 M50.068 7.3L22.768 26.5L33.168 43.7L57.568 26.4L50.068 7.3 M33.168 43.7L82.768 18.2L70.568 2L22.768 26.5L33.168 43.7 M70.568 2L28.268 46.9L40.468 63.2L82.768 18.2L70.568 2 M40.468 63.2L101.868 31.8L89.868 15.5L28.268 46.9L40.468 63.2 M89.868 15.5L40.368 66.7L50.368 85.2L101.868 31.8L89.868 15.5 M50.368 85.2L93.768 76.8L84.568 58.2L40.368 66.7L50.368 85.2 M84.568 58.2L70.568 70.7L83.768 85.7L93.768 76.8L84.568 58.2" fill-rule="nonzero"></path></g></g></g><g id="g-root-sy_3_cu_Vector_1uqixvj1rm40lg-stroke" data-item-order="-90994" transform="translate(84.33203125, 266)"><g id="sy_3_cu_Vector_1uqixvj1rm40lg-stroke" fill="none" stroke-linecap="round" stroke-linejoin="round" stroke-miterlimit="4" stroke="#484848" stroke-width="4" stroke-opacity="1"><g><path d="M 82.6074 82C 85.9211 82 88.6074 79.3137 88.6074 76L 88.6074 55L 113.0552 10L 10 10L 34.4478 55L 34.4478 76C 34.4478 79.3137 37.1341 82 40.4478 82L 82.6074 82ZM 82.567969 82C 85.967969 82 88.867969 79.3 88.567969 76C 87.967969 69 88.967969 62 88.567969 55C 97.767969 40.6 104.267969 24.6 113.067969 10C 78.667969 10.5 44.367969 10.2 9.967969 10C 19.267969 24.3 25.167969 40.7 34.467969 55C 34.067969 62 33.767969 69 34.467969 76C 34.767969 79.3 37.167969 81.8 40.467969 82C 54.467969 82.7 68.667969 80.3 82.567969 82"></path></g></g></g><g id="g-root-sy_2_cu_Vector_1uqixvj1rm40lh-fill" data-item-order="-90990" transform="translate(45.21484375, 194)"><g id="sy_2_cu_Vector_1uqixvj1rm40lh-fill-merged" stroke="none" fill="#c8ffe5" fill-opacity="1"><g><path d="M14.585 7.4L11.685 14.7L26.585 31.1L33.185 14.9L14.585 7.4 M26.585 31.1L53.185 23.2L32.585 8.5L11.685 14.7L26.585 31.1 M32.585 8.5L34.485 60.5L54.585 64.6L53.185 23.2L32.585 8.5 M54.585 64.6L79.385 10.8L59.685 5.9L34.485 60.5L54.585 64.6 M59.685 5.9L55.185 80.5L74.985 84.5L79.385 10.8L59.685 5.9 M74.985 84.5L100.085 12.6L80.185 9.1L55.185 80.5L74.985 84.5 M80.185 9.1L79.085 77.6L99.085 80.5L100.085 12.6L80.185 9.1 M99.085 80.5L118.185 11.4L98.385 8.2L79.085 77.6L99.085 80.5 M98.385 8.2L94.385 80.3L114.185 84.5L118.185 11.4L98.385 8.2 M114.185 84.5L139.785 17.2L119.985 13.1L94.385 80.3L114.185 84.5 M119.985 13.1L116.985 76L136.785 80.8L139.785 17.2L119.985 13.1 M136.785 80.8L165.785 17.1L145.985 12.4L116.985 76L136.785 80.8 M145.985 12.4L144.085 70.1L163.885 74.4L165.785 17.1L145.985 12.4 M163.885 74.4L187.285 18.6L168.085 12.9L144.085 70.1L163.885 74.4 M168.085 12.9L164.685 31.5L184.385 35.1L187.285 18.6L168.085 12.9" fill-rule="nonzero"></path></g></g></g><g id="g-root-sy_2_cu_Vector_1uqixvj1rm40lh-stroke" data-item-order="-90990" transform="translate(45.21484375, 194)"><g id="sy_2_cu_Vector_1uqixvj1rm40lh-stroke" fill="none" stroke-linecap="round" stroke-linejoin="round" stroke-miterlimit="4" stroke="#484848" stroke-width="4" stroke-opacity="1"><g><path d="M 49.1165 82L 152.1718 82L 191.2883 10L 10 10L 49.1165 82ZM 49.085156 82C 66.185156 82.8 83.385156 82.1 100.485156 82C 117.685156 81.9 134.885156 82.1 152.185156 82C 164.985156 57.9 177.885156 33.8 191.285156 10C 171.485156 8.1 151.485156 11.1 131.585156 10C 111.485156 8.9 91.385156 10.8 71.285156 10C 50.885156 9.2 30.385156 8.5 9.985156 10C 23.385156 33.8 36.885156 57.6 49.085156 82"></path></g></g></g><g id="g-root-sy_1_cu_Vector_1lviepr1rm3y8e-fill" data-item-order="-90986" transform="translate(14, 122)"><g id="sy_1_cu_Vector_1lviepr1rm3y8e-fill-merged" stroke="none" fill="#d1f4ff" fill-opacity="1"><g><path d="M259.4 33.5L256.5 22.2L235.6 21.3L240 38.4L259.4 33.5 M235.6 21.3L217.9 72L237.7 75.7L256.5 22.2L235.6 21.3 M237.7 75.7L240.1 12.1L220.2 7.8L217.9 72L237.7 75.7 M220.2 7.8L190.9 78.5L210.8 82.8L240.1 12.1L220.2 7.8 M210.8 82.8L212.8 14.6L192.8 11.7L190.9 78.5L210.8 82.8 M192.8 11.7L175.4 79.7L195.2 82.9L212.8 14.6L192.8 11.7 M195.2 82.9L200 17.2L180.3 12.2L175.4 79.7L195.2 82.9 M180.3 12.2L149.6 80.2L169.6 84.7L200 17.2L180.3 12.2 M169.6 84.7L170.5 15.9L150.5 12.5L149.6 80.2L169.6 84.7 M150.5 12.5L128.7 78L148.7 81.4L170.5 15.9L150.5 12.5 M148.7 81.4L149.7 11.1L129.7 8.6L128.7 78L148.7 81.4 M129.7 8.6L111.4 83.7L131.5 85.6L149.7 11.1L129.7 8.6 M131.5 85.6L127.7 12.3L107.6 9.9L111.4 83.7L131.5 85.6 M107.6 9.9L87.2 79.6L106.9 83.6L127.7 12.3L107.6 9.9 M106.9 83.6L115.1 10.4L95.4 5.8L87.2 79.6L106.9 83.6 M95.4 5.8L69.6 77.6L89.5 81.3L115.1 10.4L95.4 5.8 M89.5 81.3L90.7 16.2L70.8 11.9L69.6 77.6L89.5 81.3 M70.8 11.9L43.8 74.1L63.6 78.7L90.7 16.2L70.8 11.9 M63.6 78.7L66.3 12L46.5 8L43.8 74.1L63.6 78.7 M46.5 8L26.2 63L46.2 66.7L66.3 12L46.5 8 M46.2 66.7L46.9 17.2L27 5.3L26.2 63L46.2 66.7 M27 5.3L5.2 17.1L21.1 31.3L46.9 17.2L27 5.3 M21.1 31.3L27.6 15.4L9 7.8L5.2 17.1L21.1 31.3" fill-rule="nonzero"></path></g></g></g><g id="g-root-sy_1_cu_Vector_1lviepr1rm3y8e-stroke" data-item-order="-90986" transform="translate(14, 122)"><g id="sy_1_cu_Vector_1lviepr1rm3y8e-stroke" fill="none" stroke-linecap="round" stroke-linejoin="round" stroke-miterlimit="4" stroke="#484848" stroke-width="4" stroke-opacity="1"><g><path d="M 254 16C 254 12.6863 251.3137 10 248 10L 16 10C 12.6863 10 10 12.6863 10 16L 10 31.0055C 10 34.3192 12.6863 37.0055 16 37.0055L 16.7699 37.0055L 41.2148 82L 222.5031 82L 246.948 37.0055L 248 37.0055C 251.3137 37.0055 254 34.3192 254 31.0055L 254 16ZM 254 16C 253.2 12.8 251.3 10.3 248 10C 221.6 7.4 194.9 11.3 168.4 10C 144.4 8.8 120.4 9.2 96.4 10C 69.6 10.9 42.8 8.3 16 10C 12.7 10.2 10.7 12.8 10 16C 9 20.9 11.3 26.2 10 31C 9.1 34.2 12.7 37 16 37C 16.3 37 16.5 36.9 16.8 37C 24.8 52.1 32.4 67.4 41.2 82C 53.5 82.4 65.8 81.3 78.1 82C 90.5 82.7 103.1 80.6 115.4 82C 127.8 83.4 140.3 81.1 152.7 82C 165.1 82.9 177.6 80.8 189.9 82C 200.7 83 211.6 82.3 222.5 82C 232.3 68 239.5 52.4 246.9 37C 247.3 37.1 247.6 37 248 37C 251.3 36.9 255.1 34.1 254 31C 252.3 26.3 254.4 21 254 16"></path></g></g></g><g id="g-root-ic_hous_4lwxr1rmi29z-fill" data-item-order="0" transform="translate(124, 26)"></g><g id="g-root-ic_hous_4lwxr1rmi29z-stroke" data-item-order="0" transform="translate(124, 26)"><g id="ic_hous_4lwxr1rmi29z-stroke" fill="none" stroke-linecap="round" stroke-linejoin="round" stroke-miterlimit="4" stroke="#484848" stroke-width="2" stroke-opacity="1"><g><path d="M 12.5 26.5L 12.5 21.5C 12.5 20.947715 12.947715 20.5 13.5 20.5L 30.5 20.5C 31.052285 20.5 31.5 20.947715 31.5 21.5L 31.5 26.5M 26.5 20.5L 26.5 15.5M 17.5 15.5L 17.5 20.5M 19 28.5C 19 26.843146 20.343146 25.5 22 25.5L 22 25.5C 23.656855 25.5 25 26.843146 25 28.500001M 16.522 14.58L 21.687 10.606C 21.871837 10.464971 22.128162 10.464971 22.312999 10.606L 27.478 14.58C 27.652469 14.713866 27.722211 14.944042 27.651381 15.152231C 27.580551 15.360421 27.384908 15.500308 27.165 15.5L 16.835 15.5C 16.615092 15.500308 16.419449 15.360421 16.348619 15.152231C 16.277789 14.944042 16.347531 14.713866 16.522 14.58ZM 11 28.5L 19 28.5L 19 28.5L 19 33C 19 33.276142 18.776142 33.5 18.5 33.5L 11 33.5C 10.723858 33.5 10.5 33.276142 10.5 33L 10.5 29C 10.5 28.723858 10.723858 28.5 11 28.5ZM 14.5 28.5L 14.5 33.5M 33 33.5L 25.5 33.5C 25.223858 33.5 25 33.276142 25 33L 25 28.5L 25 28.5L 33 28.5C 33.276142 28.5 33.5 28.723858 33.5 29L 33.5 33C 33.5 33.276142 33.276142 33.5 33 33.5ZM 29.5 28.5L 29.5 33.5M 12.5 26.5C 13.1 24.9 12 23.1 12.5 21.5C 12.6 21 13 20.6 13.5 20.5C 19 19.2 24.8 20.5 30.5 20.5C 31.1 20.5 31.4 21 31.5 21.5C 31.9 23.1 31.4 24.8 31.5 26.5M 26.5 20.5C 26.8 18.9 26 17.1 26.5 15.5M 17.5 15.5C 18 17.1 18.1 18.9 17.5 20.5M 19 28.5C 19.2 26.9 20.4 26 22 25.5C 23.6 25 25.1 26.8 25 28.5M 16.5 14.6C 18.5 13.6 19.7 11.5 21.7 10.6C 21.9 10.5 22.1 10.5 22.3 10.6C 24.2 11.6 25.6 13.6 27.5 14.6C 27.7 14.7 27.7 14.9 27.7 15.2C 27.6 15.4 27.4 15.5 27.2 15.5C 23.7 15.2 20.3 15.6 16.8 15.5C 16.6 15.5 16.5 15.3 16.3 15.2C 16.2 15 16.4 14.7 16.5 14.6M 11 28.5C 13.6 28 16.3 28.2 19 28.5C 19.3 30 18.5 31.6 19 33C 19.1 33.3 18.8 33.5 18.5 33.5C 16 33.2 13.5 33.7 11 33.5C 10.7 33.5 10.4 33.3 10.5 33C 11 31.8 10.3 30.3 10.5 29C 10.5 28.7 10.7 28.4 11 28.5M 14.5 28.5C 14.5 30.2 14.7 31.8 14.5 33.5M 33 33.5C 30.5 33.1 27.9 34.2 25.5 33.5C 25.2 33.4 25 33.3 25 33C 25.2 31.5 25.6 29.9 25 28.5C 27.6 28.1 30.4 28.1 33 28.5C 33.3 28.5 33.4 28.7 33.5 29C 33.8 30.3 33.7 31.7 33.5 33C 33.5 33.3 33.3 33.5 33 33.5M 29.5 28.5C 29.9 30.1 29.4 31.8 29.5 33.5"></path></g></g></g><g id="g-root-ic_hous_18jff9b1rmi22w-fill" data-item-order="0" transform="translate(58, 74)"></g><g id="g-root-ic_hous_18jff9b1rmi22w-stroke" data-item-order="0" transform="translate(58, 74)"><g id="ic_hous_18jff9b1rmi22w-stroke" fill="none" stroke-linecap="round" stroke-linejoin="round" stroke-miterlimit="4" stroke="#484848" stroke-width="2" stroke-opacity="1"><g><path d="M 13.75 34.75L 13.75 27.25C 13.75 26.421572 14.421573 25.75 15.25 25.75L 40.75 25.75C 41.578426 25.75 42.25 26.421572 42.25 27.25L 42.25 34.75M 34.75 25.75L 34.75 18.25M 21.25 18.25L 21.25 25.75M 23.5 37.75C 23.5 35.264717 25.514719 33.25 28 33.25L 28 33.25C 30.485283 33.25 32.5 35.264717 32.5 37.75M 19.782999 16.869999L 27.5305 10.909C 27.807755 10.697456 28.192242 10.697456 28.469498 10.909L 36.217003 16.869999C 36.478706 17.070799 36.583313 17.416063 36.47707 17.728348C 36.370827 18.04063 36.077362 18.250462 35.747501 18.25L 20.252501 18.25C 19.922638 18.250462 19.629173 18.04063 19.522928 17.728348C 19.416685 17.416063 19.521296 17.070799 19.782999 16.869999ZM 11.5 37.75L 23.5 37.75L 23.5 37.75L 23.5 44.5C 23.5 44.914215 23.164213 45.25 22.75 45.25L 11.5 45.25C 11.085787 45.25 10.75 44.914215 10.75 44.5L 10.75 38.5C 10.75 38.085785 11.085787 37.75 11.5 37.75ZM 16.75 37.75L 16.75 45.25M 44.5 45.25L 33.25 45.25C 32.835785 45.25 32.5 44.914215 32.5 44.5L 32.5 37.75L 32.5 37.75L 44.5 37.75C 44.914215 37.75 45.25 38.085785 45.25 38.5L 45.25 44.5C 45.25 44.914215 44.914215 45.25 44.5 45.25ZM 39.25 37.75L 39.25 45.25M 13.75 34.75C 13.3 32.349998 14.35 29.650002 13.75 27.25C 13.6 26.5 14.5 26.049999 15.25 25.75C 23.349998 22.900002 32.200001 25.299999 40.75 25.75C 41.650002 25.75 42.25 26.349998 42.25 27.25C 42.550003 29.799999 41.5 32.349998 42.25 34.75M 34.75 25.75C 34.300003 23.349998 35.050003 20.799999 34.75 18.25M 21.25 18.25C 20.5 20.65 20.799999 23.349998 21.25 25.75M 23.5 37.75C 24.400002 35.349998 25.599998 32.799999 28 33.25C 30.400002 33.700001 32.5 35.199997 32.5 37.75M 19.75 16.9C 22.450001 15.1 24.549999 12.1 27.549999 10.9C 27.849998 10.75 28.150002 10.75 28.450001 10.9C 31.599998 11.8 33.25 15.55 36.25 16.9C 36.550003 17.049999 36.400002 17.35 36.550003 17.799999C 36.550003 18.1 36.099998 18.4 35.800003 18.25C 30.700001 17.049999 25.299999 19.6 20.200001 18.25C 19.9 18.1 19.6 18.1 19.450001 17.799999C 19.450001 17.35 19.450001 17.049999 19.75 16.9M 11.5 37.75C 15.4 37.150002 19.6 38.349998 23.5 37.75C 23.349998 40 23.650002 42.25 23.5 44.5C 23.5 44.949997 23.200001 45.25 22.75 45.25C 19 44.800003 15.25 44.949997 11.5 45.25C 11.05 45.25 10.75 44.949997 10.75 44.5C 10.75 42.550003 10.75 40.449997 10.75 38.5C 10.75 38.050003 11.05 37.900002 11.5 37.75M 16.75 37.75C 16.6 40.300003 17.65 42.849998 16.75 45.25M 44.5 45.25C 40.75 45.550003 37 45.25 33.25 45.25C 32.799999 45.25 32.650002 44.949997 32.5 44.5C 32.049999 42.25 32.5 40 32.5 37.75C 36.550003 37.599998 40.75 36.400002 44.5 37.75C 44.949997 37.900002 45.400002 38.050003 45.25 38.5C 44.800003 40.449997 45.400002 42.550003 45.25 44.5C 45.25 44.949997 44.949997 45.25 44.5 45.25M 39.25 37.75C 39.400002 40.300003 40.150002 42.849998 39.25 45.25"></path></g></g></g><g id="g-root-ic_hous_1hfowlb1rm3z0o-fill" data-item-order="0" transform="translate(175, 83)"></g><g id="g-root-ic_hous_1hfowlb1rm3z0o-stroke" data-item-order="0" transform="translate(175, 83)"><g id="ic_hous_1hfowlb1rm3z0o-stroke" fill="none" stroke-linecap="round" stroke-linejoin="round" stroke-miterlimit="4" stroke="#484848" stroke-width="2" stroke-opacity="1"><g><path d="M 13.125 30.625L 13.125 24.375C 13.125 23.684643 13.684644 23.125 14.375 23.125L 35.625 23.125C 36.315353 23.125 36.875 23.684643 36.875 24.375L 36.875 30.625M 30.625 23.125L 30.625 16.875M 19.375 16.875L 19.375 23.125M 21.25 33.125C 21.25 31.053932 22.928932 29.375 25 29.375L 25 29.375C 27.071068 29.375 28.750002 31.053932 28.75 33.125M 18.1525 15.725L 24.608749 10.7575C 24.839796 10.581213 25.160202 10.581213 25.391249 10.7575L 31.8475 15.725C 32.065586 15.892332 32.152763 16.180052 32.064224 16.440289C 31.975689 16.700525 31.731136 16.875385 31.456251 16.875L 18.543751 16.875C 18.268866 16.875385 18.024311 16.700525 17.935774 16.440289C 17.847237 16.180052 17.934414 15.892332 18.1525 15.725ZM 11.25 33.125L 21.25 33.125L 21.25 33.125L 21.25 38.75C 21.25 39.095177 20.970177 39.375 20.625 39.375L 11.25 39.375C 10.904822 39.375 10.625 39.095177 10.625 38.75L 10.625 33.75C 10.625 33.404823 10.904822 33.125 11.25 33.125ZM 15.625 33.125L 15.625 39.375M 38.75 39.375L 29.375 39.375C 29.029823 39.375 28.75 39.095177 28.75 38.75L 28.75 33.125L 28.75 33.125L 38.75 33.125C 39.095177 33.125 39.375 33.404823 39.375 33.75L 39.375 38.75C 39.375 39.095177 39.095177 39.375 38.75 39.375ZM 34.375 33.125L 34.375 39.375M 13.125 30.625C 13.375 28.625 13.625 26.375 13.125 24.375C 13 23.75 13.75 22.875 14.375 23.125C 21 25.625 28.625 23.75 35.625 23.125C 36.375 23.125 37 23.75 36.875 24.375C 36.25 26.375 37.125 28.5 36.875 30.625M 30.625 23.125C 30.25 21.125 30.375 19 30.625 16.875M 19.375 16.875C 19 18.875 20 21.125 19.375 23.125M 21.25 33.125C 21.25 31 22.875 29.375 25 29.375C 27.125 29.375 29.25 31.125 28.75 33.125M 18.125 15.75C 20 13.75 22.375 12.25 24.625 10.75C 24.875 10.625 25.125 10.625 25.375 10.75C 28 11.5 29.625 14.125 31.875 15.75C 32.125 15.875 32.125 16.125 32.125 16.5C 32 16.75 31.75 17 31.5 16.875C 27.25 15.875 22.75 16.125 18.5 16.875C 18.25 16.875 18 16.75 17.875 16.5C 17.875 16.125 18 15.875 18.125 15.75M 11.25 33.125C 14.625 32.75 18 33.625 21.25 33.125C 21 35 20.625 37 21.25 38.75C 21.375 39.125 21 39.5 20.625 39.375C 17.625 38.375 14.375 38.75 11.25 39.375C 10.875 39.5 10.625 39.125 10.625 38.75C 10.875 37.125 10.75 35.375 10.625 33.75C 10.625 33.375 10.875 33.125 11.25 33.125M 15.625 33.125C 16 35.125 15 37.375 15.625 39.375M 38.75 39.375C 35.625 39.625 32.5 39.75 29.375 39.375C 29 39.375 28.875 39.125 28.75 38.75C 28.375 36.875 29.125 35 28.75 33.125C 32 32.25 35.5 32.75 38.75 33.125C 39.125 33.125 39.375 33.375 39.375 33.75C 39.375 35.375 38.75 37.25 39.375 38.75C 39.5 39.125 39.125 39.5 38.75 39.375M 34.375 33.125C 34.75 35.125 34.875 37.375 34.375 39.375"></path></g></g></g><g id="g-root-ic_chec_1cuvlrz1rm5ds1-fill" data-item-order="0" transform="translate(123, 346)"></g><g id="g-root-ic_chec_1cuvlrz1rm5ds1-stroke" data-item-order="0" transform="translate(123, 346)"><g id="ic_chec_1cuvlrz1rm5ds1-stroke" fill="none" stroke-linecap="round" stroke-linejoin="round" stroke-miterlimit="4" stroke="#484848" stroke-width="2" stroke-opacity="1"><g><path d="M 22.458334 29.687502C 22.458334 33.415424 25.368483 36.437504 28.958334 36.437504C 32.548187 36.437504 35.458336 33.415424 35.458336 29.687502C 35.458336 25.959579 32.548187 22.937502 28.958334 22.937502C 25.368483 22.937502 22.458334 25.959579 22.458334 29.687502ZM 10 10M 31.855167 27.725502L 28.708082 32.082626C 28.566446 32.278011 28.350321 32.400185 28.115423 32.417656C 27.880524 32.435123 27.649837 32.34618 27.482834 32.173752L 25.857834 30.486252M 18.125 36.437504L 10.541667 36.437504L 10.541667 20.687502C 10.541667 20.066179 11.026691 19.562502 11.625 19.562502L 17.041666 19.562502C 17.639975 19.562502 18.125 20.066179 18.125 20.687502ZM 17.041666 19.562502L 17.041666 15.062501L 26.033335 10.9135C 26.200573 10.837703 26.393322 10.854442 26.546116 10.958031C 26.698908 11.061619 26.791208 11.238135 26.791668 11.427626L 26.791668 20.687502M 15.958334 36.437504L 15.958334 33.625004C 15.958334 33.314342 15.715821 33.062504 15.416667 33.062504L 13.25 33.062504C 12.950846 33.062504 12.708333 33.314342 12.708333 33.625004L 12.708333 36.437504M 10.541667 22.937502L 14.875 22.937502M 23.541668 16.1875L 26.791668 16.1875M 21.375 18.4375L 26.791668 18.4375M 10.541667 25.187502L 12.708333 25.187502M 19.208334 14.062375L 19.208334 10.5625M 18.125 36.437504L 22.458334 36.437504M 22.458334 29.687502C 22.025002 33.400002 25.383333 37.112503 28.958334 36.437504C 32.533333 35.762501 35.458336 33.400002 35.458336 29.687502C 35.350002 25.975002 32.533333 22.712502 28.958334 22.937502C 25.383333 23.275002 21.808332 26.087502 22.458334 29.687502M 10 10M 31.883335 27.775002C 30.800001 29.237503 29.391666 30.362503 28.741667 32.050003C 28.633335 32.275002 28.308334 32.500004 28.091669 32.387501C 27.875 32.387501 27.658333 32.387501 27.441668 32.162502C 27.008333 31.487503 26.25 31.150002 25.816668 30.475002M 18.125 36.437504C 15.633333 36.662502 12.925 35.537502 10.541667 36.437504C 10.65 31.150002 11.3 25.862503 10.541667 20.687502C 10.433333 20.125002 10.975 19.562502 11.625 19.562502C 13.466667 19.675001 15.308333 19.900002 17.041666 19.562502C 17.583334 19.450001 18.233334 20.125002 18.125 20.687502C 16.933334 25.750002 18.558334 31.262503 18.125 36.437504M 17.041666 19.562502C 17.15 18.1 16.933334 16.525002 17.041666 15.062501C 20.075001 13.712501 22.891666 11.8 26.033335 10.900001C 26.25 10.900001 26.358334 10.900001 26.575001 11.0125C 26.683334 11.0125 26.791668 11.2375 26.791668 11.462501C 27.333334 14.5 27.225 17.650002 26.791668 20.687502M 15.958334 36.437504C 16.066668 35.537502 16.174999 34.525002 15.958334 33.625004C 15.85 33.287502 15.741667 33.062504 15.416667 33.062504C 14.658334 33.175003 13.9 32.837502 13.25 33.062504C 12.925 33.175003 12.6 33.287502 12.708333 33.625004C 13.033334 34.525002 12.6 35.537502 12.708333 36.437504M 10.541667 22.937502C 11.95 23.050001 13.466667 22.487501 14.875 22.937502M 23.541668 16.1875C 24.625 16.1875 25.816668 16.525002 26.791668 16.1875M 21.375 18.4375C 23.108334 18.6625 24.950001 18.4375 26.791668 18.4375M 10.541667 25.187502C 11.191667 24.962502 12.058333 24.962502 12.708333 25.187502M 19.208334 14.05C 19.424999 12.925 18.991667 11.6875 19.208334 10.5625M 18.125 36.437504C 19.533335 36.437504 21.050001 36.887501 22.458334 36.437504"></path></g></g></g></g></g></svg>