<?xml version="1.0" encoding="utf-8" standalone="yes"?>
<!DOCTYPE svg PUBLIC "-//W3C//DTD SVG 1.1//EN" "http://www.w3.org/Graphics/SVG/1.1/DTD/svg11.dtd">
<svg style="fill:none;stroke:none;fill-rule:evenodd;clip-rule:evenodd;stroke-linecap:round;stroke-linejoin:round;stroke-miterlimit:1.5;" version="1.1" xmlns="http://www.w3.org/2000/svg" xmlns:xlink="http://www.w3.org/1999/xlink" width="650" height="458" viewBox="0 0 650 458"><g id="items" style="isolation: isolate"><g id="blend" style="mix-blend-mode: normal"><g id="g-root-cp_1_g-1_hwiu5c1w1xhqj-fill" data-item-order="-295478" transform="translate(96, 87)"><g id="cp_1_g-1_hwiu5c1w1xhqj-fill-merged" stroke="none" fill="#d1f4ff" fill-opacity="1"><g><path d="M41.5 8.4L37.7 14L33.3 21.8L30.3 29.5L30.7 29.6L17.4 48.2L27.6 49.3L50.1 32.1L50.9 26.6L54.3 23.7L41.5 8.4 M17.4 48.2L28 70.8L42.2 54L30.7 29.6L17.4 48.2 M42.2 54L27.8 49.9L11.9 66.3L28 70.8L42.2 54 M11.9 66.3L20.8 94.9L35.9 76.1L27.8 49.9L11.9 66.3 M35.9 76.1L26.6 75.3L10.3 94L20.8 94.9L35.9 76.1 M10.3 94L15.4 117.1L31.6 97.9L26.6 75.3L10.3 94 M31.6 97.9L20.5 97.3L8.9 116.7L15.4 117.1L31.6 97.9 M8.9 116.7L22.2 139L30.5 113.9L20.5 97.3L8.9 116.7 M30.5 113.9L15.8 120L10.6 143.8L22.2 139L30.5 113.9 M10.6 143.8L22.9 157.1L32.4 138L15.8 120L10.6 143.8 M32.4 138L22.2 137L9.1 155.8L22.9 157.1L32.4 138 M9.1 155.8L22 182.3L32 157.1L22.2 137L9.1 155.8 M32 157.1L13.2 164.3L9.6 187.1L22 182.3L32 157.1 M9.6 187.1L30.7 204.2L40.1 186L13.2 164.3L9.6 187.1 M40.1 186L25.8 182L14.9 199.7L30.7 204.2L40.1 186 M14.9 199.7L39 226.1L45.5 203.5L25.8 182L14.9 199.7 M45.5 203.5L29.8 207.8L24.2 230.2L39 226.1L45.5 203.5 M24.2 230.2L44 249.2L50.8 228.1L29.8 207.8L24.2 230.2 M50.8 228.1L38.4 229.8L41.2 249.6L44 249.2L50.8 228.1" fill-rule="nonzero"></path></g></g><g id="cp_1_g-1_hwiu5c1w1xhqj-fill-merged" stroke="none" fill="#d1f4ff" fill-opacity="1"><g><path d="M58.5 261.4L66 258.7L81.2 246.2L89.8 221.8L65.7 235.1L64.2 241L57.3 241.4L58.5 261.4 M65.7 235.1L79.9 239.6L98.2 224.5L89.8 221.8L65.7 235.1 M98.2 224.5L97.4 217.5L88.1 219.2L103.9 196L104 196.1L103 196.6L109.7 170.4L96.6 177.4L84.7 201.9L84.3 199.6L94.2 197.7L77.6 220.5L79.9 239.6L98.2 224.5 M109.7 170.4L100.4 156.3L90.8 178L103 196.6L109.7 170.4 M90.8 178L105.4 175.7L113.9 154.1L100.4 156.3L90.8 178 M113.9 154.1L97.6 133.3L88.3 153.8L105.4 175.7L113.9 154.1 M88.3 153.8L109.5 152.7L116.8 132.2L97.6 133.3L88.3 153.8 M116.8 132.2L95.3 112.6L91.3 136L109.5 152.7L116.8 132.2 M91.3 136L103.1 131L110.5 106.1L95.3 112.6L91.3 136 M110.5 106.1L96.4 85.1L83.9 102.5L103.1 131L110.5 106.1 M83.9 102.5L105.2 108.2L116.3 90.5L96.4 85.1L83.9 102.5 M116.3 90.5L96.7 68.2L86.7 87.1L105.2 108.2L116.3 90.5 M86.7 87.1L96.3 88.3L107.3 69.6L96.7 68.2L86.7 87.1 M107.3 69.6L88.6 44.5L80.8 67.4L96.3 88.3L107.3 69.6 M80.8 67.4L101 61.8L105.1 39.8L88.6 44.5L80.8 67.4 M105.1 39.8L81.5 21.9L74.3 41.6L101 61.8L105.1 39.8 M74.3 41.6L89.4 42.3L94.5 22.5L81.5 21.9L74.3 41.6 M94.5 22.5L59.2 5.2L53.9 24.9L89.4 42.3L94.5 22.5 M53.9 24.9L70.1 26L71.4 6L59.2 5.2L53.9 24.9" fill-rule="nonzero"></path></g></g></g><g id="g-root-cp_1_g-1_hwiu5c1w1xhqj-stroke" data-item-order="-295478" transform="translate(96, 87)"><g id="cp_1_g-1_hwiu5c1w1xhqj-stroke" fill="none" stroke-linecap="round" stroke-linejoin="round" stroke-miterlimit="4" stroke="#484848" stroke-width="4" stroke-opacity="1"><g><path d="M 10 130C 10 196.2742 28.804 250 52 250C 55.0892 250 58.1006 249.0471 61 247.2385C 42.1289 235.467 28 187.4477 28 130C 28 72.5523 42.1289 24.533 61 12.7615C 58.1006 10.9529 55.0892 10 52 10C 28.804 10 10 63.7258 10 130ZM 10 130C 10.8 151.7 11.6 172.1 15.5 189.6C 19.4 207.1 24.5 221.7 30.2 232.5C 36.1 243.9 44.1 248.8 52 250C 55.1 250.5 57.9 248.7 61 247.2C 51.1 241.6 44.5 225.2 37 204.2C 29.9 184.3 28.9 158 28 130C 27 99.4 33.1 71.8 38.6 50.3C 43.4 31.4 51.9 17.8 61 12.8C 58 11.1 55.1 10.2 52 10C 39.9 9.4 30.3 25.2 21.2 48.3C 13 69.2 8.2 98.5 10 130"></path></g></g><g id="cp_1_g-1_hwiu5c1w1xhqj-stroke" fill="none" stroke-linecap="round" stroke-linejoin="round" stroke-miterlimit="4" stroke="#484848" stroke-width="4" stroke-opacity="1"><g><path d="M 112 130C 112 196.2742 93.196 250 70 250L 52 250C 55.0892 250 58.1006 249.0471 61 247.2385C 79.8711 235.467 94 187.4477 94 130C 94 72.5523 79.8711 24.533 61 12.7615C 58.1006 10.9529 55.0892 10 52 10L 70 10C 93.196 10 112 63.7258 112 130ZM 112 130C 112.8 151.7 109.6 171.9 106.5 189.6C 103.3 207.2 98.3 222.2 91.8 232.5C 85 243.3 77.9 251.2 70 250C 64.1 249.1 58 250.4 52 250C 55.1 249.6 58.7 249.8 61 247.2C 68.2 239.1 79.2 227.3 84.2 207.2C 89.4 186.1 95.2 159.4 94 130C 92.8 100.5 89.8 73.6 84.1 52.6C 78.7 32.6 70.1 18.6 61 12.8C 58.1 10.9 55.1 9.9 52 10C 57.8 8.5 64.2 8.5 70 10C 77.2 11.8 85.2 15 90.4 25.1C 95.8 35.6 101.9 49.6 105.8 67C 109.8 85.3 112.7 106.9 112 130"></path></g></g></g><g id="g-root-cp_2_g-2_dgpc0w1w1xiis-fill" data-item-order="-295472" transform="translate(264, 87)"><g id="cp_2_g-2_dgpc0w1w1xiis-fill-merged" stroke="none" fill="#c8ffe5" fill-opacity="1"><g><path d="M50.2 7.2L44.7 10.3L33.6 33.4L36.7 46.8L50.3 22.6L51.9 28L57.7 25.7L50.2 7.2 M50.3 22.6L31.4 27.9L17.2 51.1L21.5 72.4L38.8 58.3L36.3 46.9L36.7 46.8L50.3 22.6 M38.8 58.3L23 51.2L8 66.3L21.5 72.4L38.8 58.3 M8 66.3L12.8 76.6L20.1 73.5L12.4 97.4L17.3 110.9L30.9 92.3L29.8 89.8L22.2 94.2L30.6 67.3L23 51.2L8 66.3 M30.9 92.3L14.8 90.5L3.6 109.4L17.3 110.9L30.9 92.3 M3.6 109.4L24.8 139.8L35.4 120L14.8 90.5L3.6 109.4 M35.4 120L16.8 119.6L8.5 139.4L24.8 139.8L35.4 120 M8.5 139.4L28.3 158.8L35 137.4L16.8 119.6L8.5 139.4 M35 137.4L16.4 140.5L8.1 162.2L28.3 158.8L35 137.4 M8.1 162.2L24.1 182.3L32.3 160.5L16.4 140.5L8.1 162.2 M32.3 160.5L16.1 163.5L9.9 184.9L24.1 182.3L32.3 160.5 M9.9 184.9L32.5 205.3L41.8 186.7L16.1 163.5L9.9 184.9 M41.8 186.7L26.8 183.9L16 202.2L32.5 205.3L41.8 186.7 M16 202.2L33.6 223.5L44.4 205.2L26.8 183.9L16 202.2 M44.4 205.2L29.5 202.4L20.6 221L33.6 223.5L44.4 205.2 M20.6 221L44.9 241.6L51.9 221.4L29.5 202.4L20.6 221 M51.9 221.4L37.5 221.9L38.2 241.9L44.9 241.6L51.9 221.4" fill-rule="nonzero"></path></g></g><g id="cp_2_g-2_dgpc0w1w1xiis-fill-merged" stroke="none" fill="#c8ffe5" fill-opacity="1"><g><path d="M54.9 258.9L62.9 261.8L82.7 247.7L61.7 240.1L54.9 258.9 M82.7 247.7L82.6 239.1L81.2 239.2L99.6 218.1L81.9 219.1L62.6 239.8L62.9 261.8L82.7 247.7 M99.6 218.1L97.7 193.5L79.3 214.8L81.2 239.2L99.6 218.1 M79.3 214.8L90.1 214.1L101.5 193.3L97.7 193.5L79.3 214.8 M101.5 193.3L93 177.7L83 201.1L90.1 214.1L101.5 193.3 M83 201.1L103.6 195.6L111.3 172.8L93 177.7L83 201.1 M111.3 172.8L97.5 155.2L84.3 170.8L103.6 195.6L111.3 172.8 M84.3 170.8L95.5 176.9L112.2 163.3L97.5 155.2L84.3 170.8 M112.2 163.3L102.9 133.1L87.1 150L95.5 176.9L112.2 163.3 M87.1 150L103.2 153.8L115.5 136.1L102.9 133.1L87.1 150 M115.5 136.1L97.8 109.5L87.4 129.9L103.2 153.8L115.5 136.1 M87.4 129.9L105.9 129.1L115.3 108.7L97.8 109.5L87.4 129.9 M115.3 108.7L100.2 89.1L88.3 106.4L105.9 129.1L115.3 108.7 M88.3 106.4L105.7 111.6L117.5 94.3L100.2 89.1L88.3 106.4 M117.5 94.3L95.3 66.3L86.9 87.9L105.7 111.6L117.5 94.3 M86.9 87.9L98.5 86L106.5 64.5L95.3 66.3L86.9 87.9 M106.5 64.5L91.5 46.8L83 67.7L98.5 86L106.5 64.5 M83 67.7L95.8 66.5L102.2 45.8L91.5 46.8L83 67.7 M102.2 45.8L79.1 26.6L71.1 45.9L95.8 66.5L102.2 45.8 M71.1 45.9L84.5 47.2L92.8 27.9L79.1 26.6L71.1 45.9 M92.8 27.9L60.9 -0.5L53.7 19.8L84.5 47.2L92.8 27.9 M53.7 19.8L67.5 19.2L66.6 -0.8L60.9 -0.5L53.7 19.8" fill-rule="nonzero"></path></g></g></g><g id="g-root-cp_2_g-2_dgpc0w1w1xiis-stroke" data-item-order="-295472" transform="translate(264, 87)"><g id="cp_2_g-2_dgpc0w1w1xiis-stroke" fill="none" stroke-linecap="round" stroke-linejoin="round" stroke-miterlimit="4" stroke="#484848" stroke-width="4" stroke-opacity="1"><g><path d="M 10 130C 10 196.2742 28.804 250 52 250C 55.0892 250 58.1006 249.0471 61 247.2385C 42.1289 235.467 28 187.4477 28 130C 28 72.5523 42.1289 24.533 61 12.7615C 58.1006 10.9529 55.0892 10 52 10C 28.804 10 10 63.7258 10 130ZM 10 130C 10.9 160.5 12.5 189 20.6 209.6C 30 233.8 39.5 249.6 52 250C 55.1 250.1 58.5 249.6 61 247.2C 55.3 243.5 51.5 235.8 45.3 227.1C 37.7 216.4 36.3 199 31.9 180.8C 28.3 165.6 26.9 148.1 28 130C 29.6 102.2 32.2 76.8 36.9 56.2C 41.9 34.3 52.2 20.2 61 12.8C 58.1 11 54.9 9 52 10C 47 11.7 42.1 13.2 37 17.9C 30.9 23.4 25 32.9 22.3 45C 20 55.9 14.5 67.8 13.5 81.8C 12.5 96.7 10.1 112.8 10 130"></path></g></g><g id="cp_2_g-2_dgpc0w1w1xiis-stroke" fill="none" stroke-linecap="round" stroke-linejoin="round" stroke-miterlimit="4" stroke="#484848" stroke-width="4" stroke-opacity="1"><g><path d="M 112 130C 112 196.2742 93.196 250 70 250L 52 250C 55.0892 250 58.1006 249.0471 61 247.2385C 79.8711 235.467 94 187.4477 94 130C 94 72.5523 79.8711 24.533 61 12.7615C 58.1006 10.9529 55.0892 10 52 10L 70 10C 93.196 10 112 63.7258 112 130ZM 112 130C 112.9 160.5 106.5 188 101.4 209.6C 95.5 234.9 82.5 250.4 70 250C 64 249.8 58 249.4 52 250C 55.1 250.1 58.9 250 61 247.2C 65.9 240.8 75.4 234.3 79.3 221.3C 82.8 209.6 86.6 195.6 90.2 179.7C 93.6 164.8 94.7 147.7 94 130C 92.7 98.8 91.4 69.8 83 49.1C 76 31.6 70.4 16.6 61 12.8C 57.8 11.5 55.1 9.9 52 10C 57.8 8.5 64 9.5 70 10C 81.2 11 89.9 23.1 98.9 43C 108.5 64.2 112.2 95.8 112 130"></path></g></g></g><g id="g-root-cp_3_g-3_dgpc0w1w1xiit-fill" data-item-order="-295466" transform="translate(432, 87)"><g id="cp_3_g-3_dgpc0w1w1xiit-fill-merged" stroke="none" fill="#e9ffb9" fill-opacity="1"><g><path d="M47.5 11L46.1 13.9L37.2 22.4L31.9 29.6L27.7 30.7L18.1 54.1L34.4 49.6L51.7 33.7L53 30.2L53.4 30.1L47.5 11 M18.1 54.1L27.5 70.3L38.6 49.6L27.7 30.7L18.1 54.1 M38.6 49.6L31.5 50L15 71L27.5 70.3L38.6 49.6 M15 71L19.6 95.9L35.9 73.8L31.5 50L15 71 M35.9 73.8L18.4 75.9L7.7 97.4L19.6 95.9L35.9 73.8 M7.7 97.4L19.2 117.6L31 97.9L18.4 75.9L7.7 97.4 M31 97.9L16.4 97.6L4.5 117.3L19.2 117.6L31 97.9 M4.5 117.3L16 137.7L31.9 125.2L16.4 97.6L4.5 117.3 M31.9 125.2L24.9 118.5L7 129.2L16 137.7L31.9 125.2 M7 129.2L15.2 159.7L30.7 140.3L24.9 118.5L7 129.2 M30.7 140.3L19.9 139.9L7.6 159.4L15.2 159.7L30.7 140.3 M7.6 159.4L20.6 183.8L33.2 165L19.9 139.9L7.6 159.4 M33.2 165L23.2 163.9L13.1 183L20.6 183.8L33.2 165 M13.1 183L30 203.3L36.3 179.6L23.2 163.9L13.1 183 M36.3 179.6L18.5 186.2L15.7 208.6L30 203.3L36.3 179.6 M15.7 208.6L39.2 224.6L44 203.7L18.5 186.2L15.7 208.6 M44 203.7L28.8 205.9L23.1 227L39.2 224.6L44 203.7 M23.1 227L48.4 247.2L55.3 227.1L28.8 205.9L23.1 227 M55.3 227.1L40.1 227.3L40.4 247.3L48.4 247.2L55.3 227.1" fill-rule="nonzero"></path></g></g><g id="cp_3_g-3_dgpc0w1w1xiit-fill-merged" stroke="none" fill="#e9ffb9" fill-opacity="1"><g><path d="M65.2 264.7L68.9 261.4L80.9 246.1L84.5 216.9L63.6 234.7L63.2 244.5L59.6 245.5L65.2 264.7 M63.6 234.7L85.2 237.1L98 218.4L84.5 216.9L63.6 234.7 M98 218.4L88.3 199.8L79 225.3L85.2 237.1L98 218.4 M79 225.3L93.5 218.2L104.4 195.7L99.6 175.1L84.5 195.2L86.1 200.7L88.3 199.8L79 225.3 M84.5 195.2L102.5 195.1L113.9 175L99.6 175.1L84.5 195.2 M113.9 175L99.6 150.7L88.4 171.1L102.5 195.1L113.9 175 M88.4 171.1L103.2 170.6L113.3 150.3L99.6 150.7L88.4 171.1 M113.3 150.3L111.7 148L108 149.3L109.1 128.8L98.4 109.2L89.8 132.3L93.8 138.3L97.6 133.7L96.5 161.1L103.2 170.6L113.3 150.3 M89.8 132.3L104.8 128.2L111.9 105.5L98.4 109.2L89.8 132.3 M111.9 105.5L98.1 88.9L90.8 111.4L104.8 128.2L111.9 105.5 M90.8 111.4L104.7 107.8L111.5 85.5L98.1 88.9L90.8 111.4 M111.5 85.5L92.8 64.7L82.4 83.1L104.7 107.8L111.5 85.5 M82.4 83.1L103.1 87.1L112.7 68.6L92.8 64.7L82.4 83.1 M112.7 68.6L88.2 45L79.8 64.6L103.1 87.1L112.7 68.6 M79.8 64.6L96.2 65.3L104.6 45.6L88.2 45L79.8 64.6 M104.6 45.6L80.3 22.3L73.8 43.8L96.2 65.3L104.6 45.6 M73.8 43.8L88.5 41.2L91.7 20.3L80.3 22.3L73.8 43.8 M91.7 20.3L56.8 2.5L54.2 23.6L88.5 41.2L91.7 20.3 M54.2 23.6L75.8 18.6L71.3 -0.9L56.8 2.5L54.2 23.6" fill-rule="nonzero"></path></g></g></g><g id="g-root-cp_3_g-3_dgpc0w1w1xiit-stroke" data-item-order="-295466" transform="translate(432, 87)"><g id="cp_3_g-3_dgpc0w1w1xiit-stroke" fill="none" stroke-linecap="round" stroke-linejoin="round" stroke-miterlimit="4" stroke="#484848" stroke-width="4" stroke-opacity="1"><g><path d="M 10 130C 10 196.2742 28.804 250 52 250C 55.0892 250 58.1006 249.0471 61 247.2385C 42.1289 235.467 28 187.4477 28 130C 28 72.5523 42.1289 24.533 61 12.7615C 58.1006 10.9529 55.0892 10 52 10C 28.804 10 10 63.7258 10 130ZM 10 130C 10.6 147.9 11.8 164.9 13.9 180.3C 15.7 193.9 18.5 206.3 22.8 216.4C 27.1 226.2 32.1 233.8 35.5 240.4C 39.2 247.5 46.2 249.6 52 250C 55.1 250.2 58.4 249.4 61 247.2C 51 241.2 41.3 225.2 36.5 202.6C 32.3 182.2 28.6 157.3 28 130C 27.4 100 32.3 72.6 38.2 51.5C 43.7 32.1 51.4 17.3 61 12.8C 57.7 11.8 55.1 9.6 52 10C 40.8 11.5 29.5 22.5 22.9 43.6C 15.9 65.8 9.1 96.1 10 130"></path></g></g><g id="cp_3_g-3_dgpc0w1w1xiit-stroke" fill="none" stroke-linecap="round" stroke-linejoin="round" stroke-miterlimit="4" stroke="#484848" stroke-width="4" stroke-opacity="1"><g><path d="M 112 130C 112 196.2742 93.196 250 70 250L 52 250C 55.0892 250 58.1006 249.0471 61 247.2385C 79.8711 235.467 94 187.4477 94 130C 94 72.5523 79.8711 24.533 61 12.7615C 58.1006 10.9529 55.0892 10 52 10L 70 10C 93.196 10 112 63.7258 112 130ZM 112 130C 112.6 147.9 111 165.1 108.1 180.3C 105.6 193.8 102.3 205.9 99.2 216.4C 96.1 226.7 92.3 235.8 86.5 240.4C 80.2 245.4 75.8 250.4 70 250C 64 249.5 58 249.5 52 250C 55.1 249.8 57.7 248.1 61 247.2C 72.7 244.4 80.5 224.1 86 200.7C 90.6 180.7 94.4 156.4 94 130C 93.5 100.6 88.6 74.1 84.2 52.9C 79.9 32.5 70.7 17.7 61 12.8C 57.9 11.2 55 9.2 52 10C 57.9 9.1 64.1 11 70 10C 82.1 7.9 92.3 25.5 101.1 49.2C 108.8 70.2 113.9 98.9 112 130"></path></g></g></g><g id="g-root-cp_0_g-0_4losv41w1xg5q-fill" data-item-order="-295460" transform="translate(15, 63)"><g id="cp_0_g-0_4losv41w1xg5q-fill-merged" stroke="none" fill="#ebebeb" fill-opacity="1"><g><path d="M18.7 16.3L9.9 23.2L13.9 45.6L31.1 32L18.7 16.3 M13.9 45.6L40.6 54.5L36.1 31.9L9.9 23.2L13.9 45.6 M36.1 31.9L18 47.6L26.1 67.1L40.6 54.5L36.1 31.9 M26.1 67.1L56.6 64.7L47.7 45.3L18 47.6L26.1 67.1 M47.7 45.3L30.9 62.1L39.7 81.6L56.6 64.7L47.7 45.3 M39.7 81.6L77.3 79.2L68.7 59.7L30.9 62.1L39.7 81.6 M68.7 59.7L54.1 73.7L67.9 88.2L77.3 79.2L68.7 59.7" fill-rule="nonzero"></path></g></g><g id="cp_0_g-0_4losv41w1xg5q-fill-merged" stroke="none" fill="#ebebeb" fill-opacity="1"><g><path d="M535 71.8L536.7 79.6L557.8 83L554.6 67.7L535 71.8 M557.8 83L573.6 55.7L549 58.3L536.7 79.6L557.8 83 M549 58.3L566.6 77.7L586.3 69.7L573.6 55.7L549 58.3 M586.3 69.7L584.9 36.3L565.2 43.5L566.6 77.7L586.3 69.7 M565.2 43.5L581.1 63.9L599.3 54.7L584.9 36.3L565.2 43.5 M599.3 54.7L587.8 14L570.3 25.8L581.1 63.9L599.3 54.7 M570.3 25.8L591.2 41.8L603.4 25.9L587.8 14L570.3 25.8" fill-rule="nonzero"></path></g></g><g id="cp_0_g-0_4losv41w1xg5q-fill-merged" stroke="none" fill="#ebebeb" fill-opacity="1"><g><path d="M77.9 223L69.3 219.7L48.2 233L70.6 241.7L77.9 223 M48.2 233L46.7 254L67.4 245.7L69.3 219.7L48.2 233 M67.4 245.7L49.8 229.9L29.6 238.7L46.7 254L67.4 245.7 M29.6 238.7L29.1 264.5L49.3 254.6L49.8 229.9L29.6 238.7 M49.3 254.6L33.4 242.7L13.4 252.8L29.1 264.5L49.3 254.6 M13.4 252.8L13.6 289.5L33.6 283.5L33.4 242.7L13.4 252.8 M33.6 283.5L23.5 267.8L6.6 278.6L13.6 289.5L33.6 283.5" fill-rule="nonzero"></path></g></g><g id="cp_0_g-0_4losv41w1xg5q-fill-merged" stroke="none" fill="#ebebeb" fill-opacity="1"><g><path d="M602.9 290.6L603.4 289.9L594.4 265.9L585.7 280.4L602.9 290.6 M594.4 265.9L574.3 259.4L580.6 282.5L603.4 289.9L594.4 265.9 M580.6 282.5L597.8 262.8L589.1 242.4L574.3 259.4L580.6 282.5 M589.1 242.4L560.6 241L568.4 261.4L597.8 262.8L589.1 242.4 M568.4 261.4L583.8 246.1L573.8 227.9L560.6 241L568.4 261.4 M573.8 227.9L533.4 236.9L543.4 255.1L583.8 246.1L573.8 227.9 M543.4 255.1L560.7 237.8L546.6 223.6L533.4 236.9L543.4 255.1" fill-rule="nonzero"></path></g></g><g id="cp_0_g-0_4losv41w1xg5q-fill-merged" stroke="none" fill="#ebebeb" fill-opacity="1"><g><path d="M200.3 235.5L199.4 242.7L218.4 252.1L220.1 237.9L200.3 235.5 M218.4 252.1L236.7 234.2L215.8 226.6L199.4 242.7L218.4 252.1 M215.8 226.6L218.1 248.8L238.8 254.7L236.7 234.2L215.8 226.6 M238.8 254.7L250.7 239.3L231.2 231.8L218.1 248.8L238.8 254.7 M231.2 231.8L230.3 244.1L250.2 245.7L250.7 239.3L231.2 231.8" fill-rule="nonzero"></path></g></g><g id="cp_0_g-0_4losv41w1xg5q-fill-merged" stroke="none" fill="#ebebeb" fill-opacity="1"><g><path d="M368.3 235.5L367.4 242.7L386.4 252.1L388.1 237.9L368.3 235.5 M386.4 252.1L404.7 234.2L383.8 226.6L367.4 242.7L386.4 252.1 M383.8 226.6L386.1 248.8L406.8 254.7L404.7 234.2L383.8 226.6 M406.8 254.7L418.7 239.3L399.2 231.8L386.1 248.8L406.8 254.7 M399.2 231.8L398.3 244.1L418.2 245.7L418.7 239.3L399.2 231.8" fill-rule="nonzero"></path></g></g><g id="cp_0_g-0_4losv41w1xg5q-fill-merged" stroke="none" fill="#ebebeb" fill-opacity="1"><g><path d="M200.3 67.5L199.4 74.7L218.4 84.1L220.1 69.9L200.3 67.5 M218.4 84.1L236.7 66.2L215.8 58.6L199.4 74.7L218.4 84.1 M215.8 58.6L218.1 80.8L238.8 86.7L236.7 66.2L215.8 58.6 M238.8 86.7L250.7 71.3L231.2 63.8L218.1 80.8L238.8 86.7 M231.2 63.8L230.3 76.1L250.2 77.7L250.7 71.3L231.2 63.8" fill-rule="nonzero"></path></g></g><g id="cp_0_g-0_4losv41w1xg5q-fill-merged" stroke="none" fill="#ebebeb" fill-opacity="1"><g><path d="M368.3 67.5L367.4 74.7L386.4 84.1L388.1 69.9L368.3 67.5 M386.4 84.1L404.7 66.2L383.8 58.6L367.4 74.7L386.4 84.1 M383.8 58.6L386.1 80.8L406.8 86.7L404.7 66.2L383.8 58.6 M406.8 86.7L418.7 71.3L399.2 63.8L386.1 80.8L406.8 86.7 M399.2 63.8L398.3 76.1L418.2 77.7L418.7 71.3L399.2 63.8" fill-rule="nonzero"></path></g></g><g id="cp_0_g-0_4losv41w1xg5q-fill-merged" stroke="none" fill="#ebebeb" fill-opacity="1"><g><path d="M145 91.4L145.7 91.1L138.9 72.4L138.2 72.6L145 91.4 M57.9 152.9L58.4 155L77.9 150.6L77.4 148.5L57.9 152.9 M105.1 239.7L109.4 237.4L99.8 219.8L95.5 222.2L105.1 239.7" fill-rule="nonzero"></path></g></g><g id="cp_0_g-0_4losv41w1xg5q-fill-merged" stroke="none" fill="#ebebeb" fill-opacity="1"><g><path d="M47.7 179.7L43 182.9L54.4 199.4L59 196.2L47.7 179.7" fill-rule="nonzero"></path></g></g><g id="cp_0_g-0_4losv41w1xg5q-fill-merged" stroke="none" fill="#ebebeb" fill-opacity="1"><g><path d="M516.3 200L521.7 191.3L504.8 180.7L499.4 189.4L516.3 200 M369.9 116.9L370.4 119L389.9 114.6L389.4 112.5L369.9 116.9" fill-rule="nonzero"></path></g></g><g id="cp_0_g-0_4losv41w1xg5q-fill-merged" stroke="none" fill="#ebebeb" fill-opacity="1"><g><path d="M328.7 236.3L329.4 236.1L322.5 217.3L321.8 217.5L328.7 236.3 M290.4 189.8L290.9 191.9L310.4 187.6L309.9 185.5L290.4 189.8 M336.8 131L347.6 122L334.7 106.6L323.9 115.7L336.8 131" fill-rule="nonzero"></path></g></g><g id="cp_0_g-0_4losv41w1xg5q-fill-merged" stroke="none" fill="#ebebeb" fill-opacity="1"><g><path d="M587.7 179.7L583 182.9L594.4 199.4L599 196.2L587.7 179.7" fill-rule="nonzero"></path></g></g></g><g id="g-root-cp_0_g-0_4losv41w1xg5q-stroke" data-item-order="-295460" transform="translate(15, 63)"><g id="cp_0_g-0_4losv41w1xg5q-stroke" fill="none" stroke-linecap="round" stroke-linejoin="round" stroke-miterlimit="4" stroke="#484848" stroke-width="4" stroke-opacity="1"><g><path d="M 10 33.999991L 10 21.999991L 34 21.999991L 34 33.999991C 34 47.254791 44.7452 57.999991 58 57.999991L 58 45.999991L 82 69.999991L 58 93.999991L 58 81.999991C 31.4903 81.999991 10 60.509691 10 33.999991ZM 10 34C 10.9 30.1 8.8 25.8 10 22C 17.9 23 26 22.5 34 22C 33.8 26 34.3 30 34 34C 33.1 47.2 44.8 58.9 58 58C 58.3 54 58 50 58 46C 66.8 53.1 74.4 61.6 82 70C 73.9 77.9 64.5 84.8 58 94C 57.4 90 57.2 85.9 58 82C 31.5 83.8 10.2 60.5 10 34"></path></g></g><g id="cp_0_g-0_4losv41w1xg5q-stroke" fill="none" stroke-linecap="round" stroke-linejoin="round" stroke-miterlimit="4" stroke="#484848" stroke-width="4" stroke-opacity="1"><g><path d="M 550 81.999986L 538 81.999986L 538 57.999986L 550 57.999986C 563.2548 57.999986 574 47.254786 574 33.999986L 562 33.999986L 586 9.999986L 610 33.999986L 598 33.999986C 598 60.509686 576.5097 81.999986 550 81.999986ZM 550 82C 546.1 81.2 541.8 83.2 538 82C 539 74.1 538.5 66 538 58C 542 58.2 546 57.7 550 58C 563.2 58.9 574.9 47.2 574 34C 570 33.7 566 34 562 34C 569.1 25.2 577.6 17.6 586 10C 593.9 18.1 600.8 27.5 610 34C 606 34.6 601.9 34.8 598 34C 599.8 60.5 576.5 81.8 550 82"></path></g></g><g id="cp_0_g-0_4losv41w1xg5q-stroke" fill="none" stroke-linecap="round" stroke-linejoin="round" stroke-miterlimit="4" stroke="#484848" stroke-width="4" stroke-opacity="1"><g><path d="M 10 273.999985L 10 285.999985L 34 285.999985L 34 273.999985C 34 260.745185 44.7452 249.999985 58 249.999985L 58 261.999985L 82 237.999985L 58 213.999985L 58 225.999985C 31.4903 225.999985 10 247.490285 10 273.999985ZM 10 274C 9.1 277.9 11.2 282.2 10 286C 17.9 287 26 286.5 34 286C 34.2 282 33.7 278 34 274C 34.9 260.8 44.8 250.9 58 250C 57.7 254 58 258 58 262C 65.1 253.2 73.6 245.6 82 238C 74.1 229.9 67.2 220.5 58 214C 58.6 218 58.8 222.1 58 226C 31.5 227.8 9.8 247.5 10 274"></path></g></g><g id="cp_0_g-0_4losv41w1xg5q-stroke" fill="none" stroke-linecap="round" stroke-linejoin="round" stroke-miterlimit="4" stroke="#484848" stroke-width="4" stroke-opacity="1"><g><path d="M 550 225.999985L 538 225.999985L 538 249.999985L 550 249.999985C 563.2548 249.999985 574 260.745185 574 273.999985L 562 273.999985L 586 297.999985L 610 273.999985L 598 273.999985C 598 247.490285 576.5097 225.999985 550 225.999985ZM 550 226C 546.1 225.1 541.8 227.2 538 226C 537 233.9 537.5 242 538 250C 542 250.2 546 249.7 550 250C 563.2 250.9 573.1 260.8 574 274C 570 273.7 566 274 562 274C 570.8 281.1 578.4 289.6 586 298C 594.1 290.1 603.5 283.2 610 274C 606 274.6 601.9 274.8 598 274C 596.2 247.6 576.5 225.8 550 226"></path></g></g><g id="cp_0_g-0_4losv41w1xg5q-stroke" fill="none" stroke-linecap="round" stroke-linejoin="round" stroke-miterlimit="4" stroke="#484848" stroke-width="4" stroke-opacity="1"><g><path d="M 202 249.999985L 226 249.999985L 226 261.999985L 250 237.999985L 226 213.999985L 226 225.999985L 202 225.999985L 202 249.999985ZM 202 250C 209.9 251.4 218.2 248.4 226 250C 225.4 253.9 225.5 258 226 262C 234.1 254.1 241.8 245.8 250 238C 242 230 234.6 221.3 226 214C 225.4 218 226.3 222 226 226C 218.2 227.9 209.9 224.8 202 226C 201.2 234 202.1 242 202 250"></path></g></g><g id="cp_0_g-0_4losv41w1xg5q-stroke" fill="none" stroke-linecap="round" stroke-linejoin="round" stroke-miterlimit="4" stroke="#484848" stroke-width="4" stroke-opacity="1"><g><path d="M 370 249.999985L 394 249.999985L 394 261.999985L 418 237.999985L 394 213.999985L 394 225.999985L 370 225.999985L 370 249.999985ZM 370 250C 377.9 251.4 386.2 248.4 394 250C 393.4 253.9 393.5 258 394 262C 402.1 254.1 409.8 245.8 418 238C 410 230 402.6 221.3 394 214C 393.4 218 394.3 222 394 226C 386.2 227.9 377.9 224.8 370 226C 369.2 234 370.1 242 370 250"></path></g></g><g id="cp_0_g-0_4losv41w1xg5q-stroke" fill="none" stroke-linecap="round" stroke-linejoin="round" stroke-miterlimit="4" stroke="#484848" stroke-width="4" stroke-opacity="1"><g><path d="M 202 81.999989L 226 81.999989L 226 93.999989L 250 69.999989L 226 45.999989L 226 57.999989L 202 57.999989L 202 81.999989ZM 202 82C 209.9 83.3 218.2 80.4 226 82C 225.4 85.9 225.5 90 226 94C 234.1 86.1 241.8 77.8 250 70C 242 62 234.6 53.3 226 46C 225.4 50 226.3 54 226 58C 218.2 59.9 209.9 56.8 202 58C 201.2 66 202.1 74 202 82"></path></g></g><g id="cp_0_g-0_4losv41w1xg5q-stroke" fill="none" stroke-linecap="round" stroke-linejoin="round" stroke-miterlimit="4" stroke="#484848" stroke-width="4" stroke-opacity="1"><g><path d="M 370 81.999989L 394 81.999989L 394 93.999989L 418 69.999989L 394 45.999989L 394 57.999989L 370 57.999989L 370 81.999989ZM 370 82C 377.9 83.3 386.2 80.4 394 82C 393.4 85.9 393.5 90 394 94C 402.1 86.1 409.8 77.8 418 70C 410 62 402.6 53.3 394 46C 393.4 50 394.3 54 394 58C 386.2 59.9 377.9 56.8 370 58C 369.2 66 370.1 74 370 82"></path></g></g><g id="cp_0_g-0_4losv41w1xg5q-stroke" fill="none" stroke-linecap="round" stroke-linejoin="round" stroke-miterlimit="4" stroke="#484848" stroke-width="4" stroke-opacity="1"><g><path d="M 174.8837 145.000723C 169.9667 145.063023 166 149.068323 166 154.000023C 166 158.931723 169.9667 162.937023 174.8837 162.999323C 174.9608 160.028323 175 157.027223 175 154.000023C 175 150.972823 174.9608 147.971723 174.8837 145.000723ZM 103 91.000023C 107.9706 91.000023 112 86.970623 112 82.000023C 112 77.029423 107.9706 73.000023 103 73.000023C 98.0294 73.000023 94 77.029423 94 82.000023C 94 86.970623 98.0294 91.000023 103 91.000023ZM 76 154.000023C 76 158.970623 71.9706 163.000023 67 163.000023C 62.0294 163.000023 58 158.970623 58 154.000023C 58 149.029423 62.0294 145.000023 67 145.000023C 71.9706 145.000023 76 149.029423 76 154.000023ZM 103 163.000023C 107.9706 163.000023 112 158.970623 112 154.000023C 112 149.029423 107.9706 145.000023 103 145.000023C 98.0294 145.000023 94 149.029423 94 154.000023C 94 158.970623 98.0294 163.000023 103 163.000023ZM 85 199.000023C 89.9706 199.000023 94 194.970623 94 190.000023C 94 185.029423 89.9706 181.000023 85 181.000023C 80.0294 181.000023 76 185.029423 76 190.000023C 76 194.970623 80.0294 199.000023 85 199.000023ZM 121 199.000023C 125.9706 199.000023 130 194.970623 130 190.000023C 130 185.029423 125.9706 181.000023 121 181.000023C 116.0294 181.000023 112 185.029423 112 190.000023C 112 194.970623 116.0294 199.000023 121 199.000023ZM 166 190.000023C 166 194.970623 161.9706 199.000023 157 199.000023C 152.0294 199.000023 148 194.970623 148 190.000023C 148 185.029423 152.0294 181.000023 157 181.000023C 161.9706 181.000023 166 185.029423 166 190.000023ZM 139 91.000023C 143.9706 91.000023 148 86.970623 148 82.000023C 148 77.029423 143.9706 73.000023 139 73.000023C 134.0294 73.000023 130 77.029423 130 82.000023C 130 86.970623 134.0294 91.000023 139 91.000023ZM 112 226.000023C 112 230.970623 107.9706 235.000023 103 235.000023C 98.0294 235.000023 94 230.970623 94 226.000023C 94 221.029423 98.0294 217.000023 103 217.000023C 107.9706 217.000023 112 221.029423 112 226.000023ZM 148 226.000023C 148 230.970623 143.9706 235.000023 139 235.000023C 134.0294 235.000023 130 230.970623 130 226.000023C 130 221.029423 134.0294 217.000023 139 217.000023C 143.9706 217.000023 148 221.029423 148 226.000023ZM 139 163.000023C 143.9706 163.000023 148 158.970623 148 154.000023C 148 149.029423 143.9706 145.000023 139 145.000023C 134.0294 145.000023 130 149.029423 130 154.000023C 130 158.970623 134.0294 163.000023 139 163.000023ZM 85 127.000023C 89.9706 127.000023 94 122.970623 94 118.000023C 94 113.029423 89.9706 109.000023 85 109.000023C 80.0294 109.000023 76 113.029423 76 118.000023C 76 122.970623 80.0294 127.000023 85 127.000023ZM 130 118.000023C 130 122.970623 125.9706 127.000023 121 127.000023C 116.0294 127.000023 112 122.970623 112 118.000023C 112 113.029423 116.0294 109.000023 121 109.000023C 125.9706 109.000023 130 113.029423 130 118.000023ZM 157 127.000023C 161.9706 127.000023 166 122.970623 166 118.000023C 166 113.029423 161.9706 109.000023 157 109.000023C 152.0294 109.000023 148 113.029423 148 118.000023C 148 122.970623 152.0294 127.000023 157 127.000023ZM 174.9 145C 170.1 144 167.5 149.3 166 154C 164.5 158.7 170 163.4 174.9 163C 175.2 160.1 174.5 157 175 154C 175.5 151 174.8 148 174.9 145M 103 91C 108 91.1 112.9 86.9 112 82C 111.1 77.1 108 73.4 103 73C 98 72.6 94.6 77.1 94 82C 93.4 86.9 98.2 92.2 103 91M 76 154C 75.9 159 71.7 161.5 67 163C 62.3 164.5 57.2 158.9 58 154C 58.8 149.1 62.1 145.7 67 145C 71.9 144.3 75.8 149 76 154M 103 163C 107.9 162.2 113.8 158.6 112 154C 110.2 149.4 107.9 146 103 145C 98.1 144 94.5 149.1 94 154C 93.5 158.9 98.2 164.2 103 163M 85 199C 89.8 197.6 95.1 194.9 94 190C 92.9 185.1 89.8 182.3 85 181C 80.2 179.7 76.2 185 76 190C 75.8 195 80.1 198.3 85 199M 121 199C 125.9 199.6 129.5 194.9 130 190C 130.5 185.1 125.9 181.6 121 181C 116.1 180.4 110.5 185.3 112 190C 113.5 194.7 116.2 197.6 121 199M 166 190C 165.8 195 161.9 200.1 157 199C 152.2 197.9 148.4 194.9 148 190C 147.6 185 152.1 181.8 157 181C 161.9 180.2 165.5 185.1 166 190M 139 91C 143.9 90.1 149.4 86.8 148 82C 146.6 77.2 143.8 74.2 139 73C 134.2 71.8 130.6 77.1 130 82C 129.4 86.9 134.1 91.9 139 91M 112 226C 110.5 230.7 108 234.7 103 235C 98 235.3 92.7 230.8 94 226C 95.3 221.2 98.2 218.4 103 217C 107.8 215.6 111.5 221.1 112 226M 148 226C 148.9 230.9 144 235.1 139 235C 134 234.9 130.1 231 130 226C 129.9 221 134.1 217.9 139 217C 143.9 216.1 147.8 221 148 226M 139 163C 144 163 147.3 158.9 148 154C 148.7 149.1 143.9 144.5 139 145C 134.1 145.5 128.6 149.2 130 154C 131.4 158.8 134 163 139 163M 85 127C 89.9 126.6 93.3 122.9 94 118C 94.7 113.1 89.9 108 85 109C 80.1 110 76.2 113 76 118C 75.8 123 80 127.2 85 127M 130 118C 129.6 123 126 127.3 121 127C 116 126.7 112.6 122.9 112 118C 111.4 113.1 116.1 108.1 121 109C 125.9 109.9 130 113 130 118M 157 127C 161.9 127.7 166.2 123 166 118C 165.8 113 161.7 110.5 157 109C 152.3 107.5 147.5 113.1 148 118C 148.5 122.9 152.1 126.4 157 127"></path></g></g><g id="cp_0_g-0_4losv41w1xg5q-stroke" fill="none" stroke-linecap="round" stroke-linejoin="round" stroke-miterlimit="4" stroke="#484848" stroke-width="4" stroke-opacity="1"><g><path d="M 40 154.000023C 40 158.970623 35.9706 163.000023 31 163.000023C 26.0294 163.000023 22 158.970623 22 154.000023C 22 149.029423 26.0294 145.000023 31 145.000023C 35.9706 145.000023 40 149.029423 40 154.000023ZM 49 199.000023C 53.9706 199.000023 58 194.970623 58 190.000023C 58 185.029423 53.9706 181.000023 49 181.000023C 44.0294 181.000023 40 185.029423 40 190.000023C 40 194.970623 44.0294 199.000023 49 199.000023ZM 49 127.000023C 53.9706 127.000023 58 122.970623 58 118.000023C 58 113.029423 53.9706 109.000023 49 109.000023C 44.0294 109.000023 40 113.029423 40 118.000023C 40 122.970623 44.0294 127.000023 49 127.000023ZM 40 154C 38.9 158.9 35.8 164.5 31 163C 26.3 161.5 22.5 158.9 22 154C 21.5 149.1 26.1 144.2 31 145C 35.9 145.8 40.3 149 40 154M 49 199C 53.9 198.1 57.8 195 58 190C 58.2 185 54 181.1 49 181C 44 181 40.4 185 40 190C 39.6 195 44.1 198.4 49 199M 49 127C 53.7 125.5 59.2 122.8 58 118C 56.8 113.2 54 109.1 49 109C 44 108.9 40.8 113.1 40 118C 39.2 122.9 44.1 127.7 49 127"></path></g></g><g id="cp_0_g-0_4losv41w1xg5q-stroke" fill="none" stroke-linecap="round" stroke-linejoin="round" stroke-miterlimit="4" stroke="#484848" stroke-width="4" stroke-opacity="1"><g><path d="M 508.0182 109.505723C 504.5131 110.736123 502 114.074523 502 118.000023C 502 122.607623 505.4625 126.406623 509.9275 126.936823C 509.4439 120.942323 508.8031 115.119523 508.0182 109.505723ZM 509.9275 181.063223C 505.4625 181.593423 502 185.392323 502 190.000023C 502 193.925523 504.5131 197.263923 508.0182 198.494323C 508.8031 192.880523 509.4439 187.057723 509.9275 181.063223ZM 478 91.000023C 482.9706 91.000023 487 86.970623 487 82.000023C 487 77.029423 482.9706 73.000023 478 73.000023C 473.0294 73.000023 469 77.029423 469 82.000023C 469 86.970623 473.0294 91.000023 478 91.000023ZM 379 199.000023C 383.9706 199.000023 388 194.970623 388 190.000023C 388 185.029423 383.9706 181.000023 379 181.000023C 374.0294 181.000023 370 185.029423 370 190.000023C 370 194.970623 374.0294 199.000023 379 199.000023ZM 445 199.000023C 449.9706 199.000023 454 194.970623 454 190.000023C 454 185.029423 449.9706 181.000023 445 181.000023C 440.0294 181.000023 436 185.029423 436 190.000023C 436 194.970623 440.0294 199.000023 445 199.000023ZM 487 226.000023C 487 230.970623 482.9706 235.000023 478 235.000023C 473.0294 235.000023 469 230.970623 469 226.000023C 469 221.029423 473.0294 217.000023 478 217.000023C 482.9706 217.000023 487 221.029423 487 226.000023ZM 478 163.000023C 482.9706 163.000023 487 158.970623 487 154.000023C 487 149.029423 482.9706 145.000023 478 145.000023C 473.0294 145.000023 469 149.029423 469 154.000023C 469 158.970623 473.0294 163.000023 478 163.000023ZM 403 154.000023C 403 158.970623 407.0294 163.000023 412 163.000023C 416.9706 163.000023 421 158.970623 421 154.000023C 421 149.029423 416.9706 145.000023 412 145.000023C 407.0294 145.000023 403 149.029423 403 154.000023ZM 445 127.000023C 449.9706 127.000023 454 122.970623 454 118.000023C 454 113.029423 449.9706 109.000023 445 109.000023C 440.0294 109.000023 436 113.029423 436 118.000023C 436 122.970623 440.0294 127.000023 445 127.000023ZM 388 118.000023C 388 122.970623 383.9706 127.000023 379 127.000023C 374.0294 127.000023 370 122.970623 370 118.000023C 370 113.029423 374.0294 109.000023 379 109.000023C 383.9706 109.000023 388 113.029423 388 118.000023ZM 508 109.5C 504.3 110 503.2 114.3 502 118C 500.6 122.4 505.4 126.9 509.9 126.9C 509.7 120.9 507.9 115.2 508 109.5M 509.9 181.1C 505.7 182.5 502.2 185.4 502 190C 501.9 193.9 504.5 197.2 508 198.5C 509.4 193 509 187 509.9 181.1M 478 91C 482.7 89.5 488.2 86.8 487 82C 485.8 77.2 483 73.1 478 73C 473 72.9 469.8 77.1 469 82C 468.2 86.9 473.1 91.7 478 91M 379 199C 383.6 197.2 388.2 195 388 190C 387.8 185 383.9 180.2 379 181C 374.1 181.8 371 185.1 370 190C 369 194.9 374 198.5 379 199M 445 199C 449.9 197.9 455.2 194.8 454 190C 452.8 185.2 449.8 179.6 445 181C 440.2 182.4 437.3 185.2 436 190C 434.7 194.8 440 198.8 445 199M 487 226C 486.5 230.9 482.9 235.7 478 235C 473.1 234.3 468.4 230.9 469 226C 469.6 221.1 473.1 216.4 478 217C 482.9 217.6 485.5 221.3 487 226M 478 163C 482.9 164.1 485.6 158.8 487 154C 488.4 149.2 483 145.2 478 145C 473 144.8 468.6 149.1 469 154C 469.4 159 473.1 163.8 478 163M 403 154C 404.4 158.8 407 163.5 412 163C 416.9 162.5 421.9 158.9 421 154C 420.1 149.1 416.8 146.2 412 145C 407.2 143.8 403.6 149.1 403 154M 445 127C 450 126.7 454.9 122.9 454 118C 453.1 113.1 449.7 110.5 445 109C 440.3 107.5 437.3 113.2 436 118C 434.7 122.8 440.2 128.4 445 127M 388 118C 387.9 123 383.9 126.5 379 127C 374.1 127.5 370.9 122.9 370 118C 369.1 113.1 374 109.1 379 109C 384 108.9 387.1 113.1 388 118"></path></g></g><g id="cp_0_g-0_4losv41w1xg5q-stroke" fill="none" stroke-linecap="round" stroke-linejoin="round" stroke-miterlimit="4" stroke="#484848" stroke-width="4" stroke-opacity="1"><g><path d="M 340.1446 110.420723C 337.6517 112.021023 336 114.817623 336 118.000023C 336 121.876523 338.4509 125.180723 341.8876 126.447323C 341.4356 120.949823 340.8512 115.597923 340.1446 110.420723ZM 341.8876 181.552723C 338.4509 182.819423 336 186.123523 336 190.000023C 336 193.182423 337.6517 195.979023 340.1446 197.579323C 340.8512 192.402123 341.4356 187.050223 341.8876 181.552723ZM 277 91.000023C 281.9706 91.000023 286 86.970623 286 82.000023C 286 77.029423 281.9706 73.000023 277 73.000023C 272.0294 73.000023 268 77.029423 268 82.000023C 268 86.970623 272.0294 91.000023 277 91.000023ZM 211 199.000023C 215.9706 199.000023 220 194.970623 220 190.000023C 220 185.029423 215.9706 181.000023 211 181.000023C 206.0294 181.000023 202 185.029423 202 190.000023C 202 194.970623 206.0294 199.000023 211 199.000023ZM 262 190.000023C 262 194.970623 257.9706 199.000023 253 199.000023C 248.0294 199.000023 244 194.970623 244 190.000023C 244 185.029423 248.0294 181.000023 253 181.000023C 257.9706 181.000023 262 185.029423 262 190.000023ZM 308 190.000023C 308 194.970623 303.9706 199.000023 299 199.000023C 294.0294 199.000023 290 194.970623 290 190.000023C 290 185.029423 294.0294 181.000023 299 181.000023C 303.9706 181.000023 308 185.029423 308 190.000023ZM 332 82.000023C 332 86.970623 327.9706 91.000023 323 91.000023C 318.0294 91.000023 314 86.970623 314 82.000023C 314 77.029423 318.0294 73.000023 323 73.000023C 327.9706 73.000023 332 77.029423 332 82.000023ZM 277 235.000023C 281.9706 235.000023 286 230.970623 286 226.000023C 286 221.029423 281.9706 217.000023 277 217.000023C 272.0294 217.000023 268 221.029423 268 226.000023C 268 230.970623 272.0294 235.000023 277 235.000023ZM 332 226.000023C 332 230.970623 327.9706 235.000023 323 235.000023C 318.0294 235.000023 314 230.970623 314 226.000023C 314 221.029423 318.0294 217.000023 323 217.000023C 327.9706 217.000023 332 221.029423 332 226.000023ZM 277 163.000023C 281.9706 163.000023 286 158.970623 286 154.000023C 286 149.029423 281.9706 145.000023 277 145.000023C 272.0294 145.000023 268 149.029423 268 154.000023C 268 158.970623 272.0294 163.000023 277 163.000023ZM 332 154.000023C 332 158.970623 327.9706 163.000023 323 163.000023C 318.0294 163.000023 314 158.970623 314 154.000023C 314 149.029423 318.0294 145.000023 323 145.000023C 327.9706 145.000023 332 149.029423 332 154.000023ZM 231 163.000023C 226.0294 163.000023 222 158.970623 222 154.000023C 222 149.029423 226.0294 145.000023 231 145.000023C 235.9706 145.000023 240 149.029423 240 154.000023C 240 158.970623 235.9706 163.000023 231 163.000023ZM 262 118.000023C 262 122.970623 257.9706 127.000023 253 127.000023C 248.0294 127.000023 244 122.970623 244 118.000023C 244 113.029423 248.0294 109.000023 253 109.000023C 257.9706 109.000023 262 113.029423 262 118.000023ZM 211 127.000023C 215.9706 127.000023 220 122.970623 220 118.000023C 220 113.029423 215.9706 109.000023 211 109.000023C 206.0294 109.000023 202 113.029423 202 118.000023C 202 122.970623 206.0294 127.000023 211 127.000023ZM 308 118.000023C 308 122.970623 303.9706 127.000023 299 127.000023C 294.0294 127.000023 290 122.970623 290 118.000023C 290 113.029423 294.0294 109.000023 299 109.000023C 303.9706 109.000023 308 113.029423 308 118.000023ZM 340.1 110.4C 337.4 111.4 336.9 115 336 118C 334.9 121.7 338.3 125.6 341.9 126.4C 341.7 120.9 340 115.7 340.1 110.4M 341.9 181.6C 338.9 183.6 336.2 186.1 336 190C 335.9 193.2 337.7 195.9 340.1 197.6C 341.4 192.5 341 187 341.9 181.6M 277 91C 281.7 89.5 287.2 86.8 286 82C 284.8 77.2 282 73.1 277 73C 272 72.9 268.8 77.1 268 82C 267.2 86.9 272.1 91.7 277 91M 211 199C 215.6 197.2 220.2 195 220 190C 219.8 185 215.9 180.2 211 181C 206.1 181.8 203 185.1 202 190C 201 194.9 206.1 198.5 211 199M 262 190C 263.1 194.9 257.8 197.8 253 199C 248.2 200.2 245.4 194.8 244 190C 242.6 185.2 248.2 179.7 253 181C 257.8 182.3 262.2 185 262 190M 308 190C 307.5 194.9 303.9 199.7 299 199C 294.1 198.3 289.4 194.9 290 190C 290.6 185.1 294.1 180.4 299 181C 303.9 181.6 306.5 185.3 308 190M 332 82C 330.9 86.8 327.8 92.4 323 91C 318.2 89.6 313.8 87 314 82C 314.2 77 318 73.4 323 73C 328 72.6 331.2 77.1 332 82M 277 235C 281.8 233.6 286.5 230.9 286 226C 285.5 221.1 281.9 216.1 277 217C 272.1 217.9 269.2 221.2 268 226C 266.8 230.8 272.1 234.4 277 235M 332 226C 332.3 231 327.9 234.1 323 235C 318.1 235.9 312.5 230.7 314 226C 315.5 221.3 318.2 215.7 323 217C 327.8 218.3 330.6 221.2 332 226M 277 163C 282 163.1 286.5 158.9 286 154C 285.5 149.1 281.9 144.1 277 145C 272.1 145.9 267.9 149 268 154C 268.1 159 272.1 163.9 277 163M 332 154C 331.3 158.9 328 162.8 323 163C 318 163.3 314 159 314 154C 314 149 318.1 145.5 323 145C 327.9 144.5 330.6 149.2 332 154M 231 163C 226.1 162.3 222 159 222 154C 222 149 226.1 145.4 231 145C 236 144.6 239 149.1 240 154C 241 158.9 236 163.2 231 163M 262 118C 261.7 123 258 126.8 253 127C 248 127.2 243.6 123 244 118C 244.4 113 248.1 109.6 253 109C 257.9 108.4 262.9 113.1 262 118M 211 127C 216 126.8 220 123 220 118C 220 113 215.9 109.7 211 109C 206.1 108.3 203.5 113.3 202 118C 200.5 122.7 206.1 127.5 211 127M 308 118C 306.8 122.8 303.9 127.6 299 127C 294.1 126.4 290.5 122.9 290 118C 289.5 113.1 294.1 108.4 299 109C 303.9 109.6 308.6 113.1 308 118"></path></g></g><g id="cp_0_g-0_4losv41w1xg5q-stroke" fill="none" stroke-linecap="round" stroke-linejoin="round" stroke-miterlimit="4" stroke="#484848" stroke-width="4" stroke-opacity="1"><g><path d="M 589 199.000023C 593.9706 199.000023 598 194.970623 598 190.000023C 598 185.029423 593.9706 181.000023 589 181.000023C 584.0294 181.000023 580 185.029423 580 190.000023C 580 194.970623 584.0294 199.000023 589 199.000023ZM 538 154.000023C 538 158.970623 542.0294 163.000023 547 163.000023C 551.9706 163.000023 556 158.970623 556 154.000023C 556 149.029423 551.9706 145.000023 547 145.000023C 542.0294 145.000023 538 149.029423 538 154.000023ZM 589 127.000023C 593.9706 127.000023 598 122.970623 598 118.000023C 598 113.029423 593.9706 109.000023 589 109.000023C 584.0294 109.000023 580 113.029423 580 118.000023C 580 122.970623 584.0294 127.000023 589 127.000023ZM 589 199C 593.9 200.1 596.5 194.8 598 190C 599.5 185.3 594 180.5 589 181C 584.1 181.5 580.8 185.1 580 190C 579.2 194.9 584 198.7 589 199M 538 154C 538.9 158.9 542 162.8 547 163C 552 163.2 556 159 556 154C 556 149 552 145.4 547 145C 542 144.6 538.6 149.1 538 154M 589 127C 593.7 125.5 599.2 122.8 598 118C 596.8 113.2 594 109.1 589 109C 584 108.9 580.8 113.1 580 118C 579.2 122.9 584.1 127.7 589 127"></path></g></g></g></g></g></svg>