<?xml version="1.0" encoding="utf-8" standalone="yes"?>
<!DOCTYPE svg PUBLIC "-//W3C//DTD SVG 1.1//EN" "http://www.w3.org/Graphics/SVG/1.1/DTD/svg11.dtd">
<svg style="fill:none;stroke:none;fill-rule:evenodd;clip-rule:evenodd;stroke-linecap:round;stroke-linejoin:round;stroke-miterlimit:1.5;" version="1.1" xmlns="http://www.w3.org/2000/svg" xmlns:xlink="http://www.w3.org/1999/xlink" width="393" height="348" viewBox="0 0 393 348"><g id="items" style="isolation: isolate"><g id="blend" style="mix-blend-mode: normal"><g id="g-root-sy_3_Vector_8zmsjk1wbx4b1-fill" data-item-order="-117338" transform="translate(6.087860107421875, 2.175079345703125)"><g id="sy_3_Vector_8zmsjk1wbx4b1-fill-merged" stroke="none" fill="#d1f4ff" fill-opacity="1"><g><path d="M101.885 88.825L103.185 88.125L101.185 66.725L92.785 71.025L101.885 88.825 M101.185 66.725L77.585 59.825L90.485 84.425L103.185 88.125L101.185 66.725 M90.485 84.425L95.085 70.425L78.685 56.525L77.585 59.825L90.485 84.425 M78.685 56.525L47.285 72.925L61.985 87.825L95.085 70.425L78.685 56.525 M61.985 87.825L84.185 46.825L68.485 33.825L47.285 72.925L61.985 87.825 M68.485 33.825L21.285 72.525L36.785 85.725L84.185 46.825L68.485 33.825 M36.785 85.725L70.885 27.625L55.385 14.525L21.285 72.525L36.785 85.725 M55.385 14.525L8.785 54.525L24.285 67.525L70.885 27.625L55.385 14.525 M24.285 67.525L52.985 18.725L35.685 8.525L8.785 54.525L24.285 67.525" fill-rule="nonzero"></path></g></g></g><g id="g-root-sy_3_Vector_8zmsjk1wbx4b1-stroke" data-item-order="-117338" transform="translate(6.087860107421875, 2.175079345703125)"><g id="sy_3_Vector_8zmsjk1wbx4b1-stroke" fill="none" stroke-linecap="round" stroke-linejoin="round" stroke-miterlimit="4" stroke="#484848" stroke-width="4" stroke-opacity="1"><g><path d="M 105.86257 65.676905L 111.51057 83.824905L 92.96957 88.006905L 96.55757 81.791905L 73.93457 68.730905C 62.97957 82.226905 43.53957 86.150905 28.00657 77.182905C 10.78757 67.241905 4.88757 45.224905 14.82957 28.005905C 24.77057 10.787905 46.78757 4.887905 64.00657 14.828905C 79.51857 23.784905 85.84357 42.542905 79.67557 58.762905L 102.30957 71.829905L 105.86257 65.676905ZM 105.88457 65.724905C 107.68457 71.724905 109.08457 78.024905 111.48457 83.824905C 105.38457 85.424905 98.98457 86.024905 92.98457 88.024905C 93.78457 85.724905 95.08457 83.624905 96.58457 81.824905C 88.78457 77.924905 81.38457 73.224905 73.98457 68.724905C 63.28457 82.424905 43.68457 85.824905 27.98457 77.224905C 19.98457 72.724905 14.48457 65.624905 11.88457 57.524905C 8.88457 48.024905 8.48457 36.724905 14.78457 28.024905C 26.58457 12.024905 46.78457 4.824905 63.98457 14.824905C 79.48457 23.824905 84.48457 42.124905 79.68457 58.724905C 86.88457 63.624905 94.68457 67.624905 102.28457 71.824905C 103.68457 69.924905 104.48457 67.624905 105.88457 65.724905"></path></g></g></g><g id="g-root-sy_2_Vector_4kfri81wbx1xi-fill" data-item-order="-117334" transform="translate(151.27243041992188, 214.299072265625)"><g id="sy_2_Vector_4kfri81wbx1xi-fill-merged" stroke="none" fill="#e9ffb9" fill-opacity="1"><g><path d="M50.7 7.701 H46.6L34 27.501L50.3 27.701L50.7 7.701 M34 27.501L44.8 49.801L54.5 23.901L46.6 7.701L34 27.501 M54.5 23.901L37.9 31.001L36.6 53.301L44.8 49.801L54.5 23.901 M36.6 53.301L69.1 71.801L74.9 52.101L37.9 31.001L36.6 53.301 M74.9 52.101L27.3 49.401L22.5 69.101L69.1 71.801L74.9 52.101 M22.5 69.101L74.6 92.301L79 72.401L27.3 49.401L22.5 69.101 M79 72.401L12.8 71.401L9.4 91.401L74.6 92.301L79 72.401 M9.4 91.401L71.7 111.801L75.1 91.901L12.8 71.401L9.4 91.401 M75.1 91.901L20.7 90.701L20.3 110.701L71.7 111.801L75.1 91.901" fill-rule="nonzero"></path></g></g></g><g id="g-root-sy_2_Vector_4kfri81wbx1xi-stroke" data-item-order="-117334" transform="translate(151.27243041992188, 214.299072265625)"><g id="sy_2_Vector_4kfri81wbx1xi-stroke" fill="none" stroke-linecap="round" stroke-linejoin="round" stroke-miterlimit="4" stroke="#484848" stroke-width="4" stroke-opacity="1"><g><path d="M 58.893 23.965928L 46 9.999928L 33.108 23.965928L 40.284 23.965928L 40.284 50.151928C 23.118 52.890928 10 67.763928 10 85.700928C 10 105.582928 26.118 121.700928 46 121.700928C 65.882 121.700928 82 105.582928 82 85.700928C 82 67.788928 68.918 52.931928 51.788 50.163928L 51.788 23.965928L 58.893 23.965928ZM 58.9 24.000928C 55.1 18.900928 50.6 14.400928 46 10.000928C 42 14.900928 37.5 19.500928 33.1 24.000928C 35.5 23.800928 37.9 24.300928 40.3 24.000928C 39.4 32.700928 41.6 41.500928 40.3 50.200928C 23.2 53.200928 9.5 67.800928 10 85.700928C 10.6 105.600928 26.1 121.400928 46 121.700928C 65.9 122.000928 81.8 105.600928 82 85.700928C 82.2 67.800928 68.9 52.800928 51.8 50.200928C 51 41.500928 51.3 32.700928 51.8 24.000928C 54.1 24.400928 56.5 23.700928 58.9 24.000928"></path></g></g></g><g id="g-root-sy_1_Vector_4kfri81wbx1xj-fill" data-item-order="-117330" transform="translate(266.9464416503906, 2.175079345703125)"><g id="sy_1_Vector_4kfri81wbx1xj-fill-merged" stroke="none" fill="#c8ffe5" fill-opacity="1"><g><path d="M5.726 81.825L6.326 82.525L31.126 78.925L19.826 67.625L5.726 81.825 M31.126 78.925L40.626 61.425L17.926 61.225L6.326 82.525L31.126 78.925 M17.926 61.225L23.926 72.825L45.626 71.125L40.626 61.425L17.926 61.225 M45.626 71.125L58.426 32.225L36.626 34.425L23.926 72.825L45.626 71.125 M36.626 34.425L61.726 78.825L80.226 70.825L58.426 32.225L36.626 34.425 M80.226 70.825L61.826 10.625L43.426 19.025L61.726 78.825L80.226 70.825 M43.426 19.025L84.626 83.425L103.326 75.525L61.826 10.625L43.426 19.025 M103.326 75.525L88.426 11.025L69.726 19.225L84.626 83.425L103.326 75.525 M69.726 19.225L98.326 60.925L114.826 49.625L88.426 11.025L69.726 19.225" fill-rule="nonzero"></path></g></g></g><g id="g-root-sy_1_Vector_4kfri81wbx1xj-stroke" data-item-order="-117330" transform="translate(266.9464416503906, 2.175079345703125)"><g id="sy_1_Vector_4kfri81wbx1xj-stroke" fill="none" stroke-linecap="round" stroke-linejoin="round" stroke-miterlimit="4" stroke="#484848" stroke-width="4" stroke-opacity="1"><g><path d="M 28.540989 88.007905L 9.999989 83.824905L 15.647989 65.676905L 19.235989 71.891905L 41.859989 58.829905C 35.648989 42.594905 41.969989 23.797905 57.503989 14.828905C 74.722989 4.887905 96.739989 10.787905 106.680989 28.005905C 116.621989 45.224905 110.722989 67.241905 93.503989 77.182905C 77.991989 86.138905 58.584989 82.237905 47.621989 68.786905L 24.987989 81.853905L 28.540989 88.007905ZM 28.525989 88.024905C 22.225989 87.924905 16.325989 84.024905 10.025989 83.824905C 10.825989 77.524905 14.425989 71.924905 15.625989 65.724905C 16.925989 67.724905 17.825989 70.024905 19.225989 71.924905C 26.825989 67.624905 33.725989 62.024905 41.825989 58.824905C 36.425989 42.324905 42.725989 25.024905 57.525989 14.824905C 65.725989 9.124905 75.925989 9.324905 85.025989 11.324905C 93.925989 13.224905 102.225989 19.224905 106.725989 28.024905C 115.625989 45.724905 110.925989 67.624905 93.525989 77.224905C 77.825989 85.724905 59.325989 81.624905 47.625989 68.824905C 41.025989 74.424905 33.125989 78.824905 25.025989 81.824905C 25.625989 84.124905 27.425989 85.924905 28.525989 88.024905"></path></g></g></g><g id="g-root-sy_0_Vector_4kfri81wbx1xk-fill" data-item-order="-117326" transform="translate(115.27243041992188, 49.9959716796875)"><g id="sy_0_Vector_4kfri81wbx1xk-fill-merged" stroke="none" fill="#ebebeb" fill-opacity="1"><g><path d="M60.3 151.704L64 152.704L72 134.104L65.6 132.404L60.3 151.704 M72 134.104L17.7 101.804L10.2 120.604L64 152.704L72 134.104 M10.2 120.604L121.4 144.804L127.4 125.604L17.7 101.804L10.2 120.604 M127.4 125.604L16.6 80.304L10.3 99.304L121.4 144.804L127.4 125.604 M10.3 99.304L136.9 132.104L143.9 113.304L16.6 80.304L10.3 99.304 M143.9 113.304L22.3 52.404L14.7 71.004L136.9 132.104L143.9 113.304 M14.7 71.004L142.9 111.204L149.9 92.404L22.3 52.404L14.7 71.004 M149.9 92.404L28.7 38.604L21.9 57.404L142.9 111.204L149.9 92.404 M21.9 57.404L145.3 92.304L152.9 73.604L28.7 38.604L21.9 57.404 M152.9 73.604L46.2 14.604L38.4 33.104L145.3 92.304L152.9 73.604 M38.4 33.104L140.3 63.204L149.2 44.904L46.2 14.604L38.4 33.104 M149.2 44.904L90.1 2.804L79.9 20.104L140.3 63.204L149.2 44.904 M79.9 20.104L111.7 35.204L120.3 17.104L90.1 2.804L79.9 20.104" fill-rule="nonzero"></path></g></g></g><g id="g-root-sy_0_Vector_4kfri81wbx1xk-stroke" data-item-order="-117326" transform="translate(115.27243041992188, 49.9959716796875)"><g id="sy_0_Vector_4kfri81wbx1xk-stroke" fill="none" stroke-linecap="round" stroke-linejoin="round" stroke-miterlimit="4" stroke="#484848" stroke-width="4" stroke-opacity="1"><g><path d="M 154 81.999998C 154 42.235998 121.765 9.999998 82 9.999998C 42.236 9.999998 10 42.235998 10 81.999998C 10 121.764998 42.236 153.999998 82 153.999998C 121.764 153.999998 154 121.764998 154 81.999998ZM 154 82.003998C 155.7 67.603998 149.6 54.103998 142.3 42.703998C 136.2 33.103998 128.2 24.203998 117.8 19.503998C 106.7 14.503998 95 10.603998 82 10.003998C 42.3 8.203998 9.4 42.203998 10 82.003998C 10.3 100.703998 16.6 118.303998 28.9 130.603998C 42.7 144.403998 61 153.603998 82 154.003998C 96.3 154.203998 109.4 149.503998 120.8 142.703998C 130.5 136.903998 137.9 128.003998 144 118.603998C 150.8 108.103998 152.4 95.203998 154 82.003998"></path></g></g></g><g id="g-root-ic_fema_1qbyqdc1wbx2bs-fill" data-item-order="0" transform="translate(17.272430419921875, 14)"></g><g id="g-root-ic_fema_1qbyqdc1wbx2bs-stroke" data-item-order="0" transform="translate(17.272430419921875, 14)"><g id="ic_fema_1qbyqdc1wbx2bs-stroke" fill="none" stroke-linecap="round" stroke-linejoin="round" stroke-miterlimit="4" stroke="#484848" stroke-width="2" stroke-opacity="1"><g><path d="M 20.386 39.972L 17.412001 39.972C 16.429102 39.971413 15.592315 39.25671 15.438 38.285999L 14.76 34.045998L 10.976 34.045998L 13.814 25.778C 14.76 22.938 15.932 21.046 18.546 21.046C 21.16 21.046 22.33 22.938 23.276001 25.778L 24.251999 28.704M 14.516 15.046C 14.516 17.255138 16.306862 19.046 18.515999 19.046C 20.72514 19.046 22.515999 17.255138 22.515999 15.046C 22.515999 12.836861 20.72514 11.046 18.515999 11.046C 16.306862 11.046 14.516 12.836861 14.516 15.046M 47.613998 39.972L 50.588001 39.972C 51.5709 39.971413 52.407684 39.25671 52.562 38.285999L 53.240002 34.045998L 57.023998 34.045998L 54.186001 25.778C 53.240002 22.938 52.068001 21.046 49.453999 21.046C 46.84 21.046 45.669998 22.938 44.723999 25.778L 43.743999 28.714001M 45.484001 15.046C 45.484001 17.255138 47.27486 19.046 49.484001 19.046C 51.693138 19.046 53.484001 17.255138 53.484001 15.046C 53.484001 12.836861 51.693138 11.046 49.484001 11.046C 47.27486 11.046 45.484001 12.836861 45.484001 15.046M 27.98 46.953999L 27.98 38.454002M 39.98 46.953999L 39.98 38.454002M 27.98 44.046001L 39.98 44.046001M 33.98 56.953999L 33.98 48.046001M 33.98 29.952L 33.98 37.952M 37.139999 56.952C 38.182861 56.955597 39.053448 56.157269 39.139999 55.118L 39.987999 46.952L 41.987999 46.952C 43.092571 46.952 43.987999 46.056568 43.987999 44.952L 43.987999 39.952C 43.987999 34.429153 39.510849 29.952 33.987999 29.952C 28.465153 29.952 23.987999 34.429153 23.987999 39.952L 23.987999 44.952C 23.987999 46.056568 24.88343 46.952 25.987999 46.952L 27.988001 46.952L 28.834 55.118C 28.920551 56.157269 29.791138 56.955597 30.834 56.952ZM 26.98 19.952C 26.980001 23.817993 30.114008 26.952 33.980003 26.952C 37.845993 26.952 40.980003 23.817993 40.980003 19.952C 40.980003 16.086006 37.845993 12.952001 33.980003 12.952001C 30.114008 12.952001 26.980001 16.086006 26.980001 19.952M 27.775999 16.709999C 29.99667 18.795588 32.92952 19.955137 35.975998 19.952C 37.672089 19.954578 39.349277 19.595961 40.896 18.900002M 20.4 40C 19.4 40.200001 18.4 40 17.4 40C 16.4 40 15.6 39.200001 15.4 38.200001C 15.2 36.799999 15.4 35.400002 14.8 34C 13.6 34.200001 12.2 34.400002 11 34C 11.2 31.200001 13.8 28.799999 13.8 25.799999C 13.8 22.799999 16 21.6 18.6 21C 21 20.4 21.799999 23.200001 23.200001 25.799999C 23.799999 26.6 24.4 27.6 24.200001 28.799999M 14.6 15C 14.8 17.200001 16.4 18.6 18.6 19C 20.6 19.4 23.200001 17.200001 22.6 15C 21.799999 13 20.6 11.6 18.6 11C 16.4 10.6 14.2 12.8 14.6 15M 47.599998 40C 48.599998 40.200001 49.599998 40.200001 50.599998 40C 51.599998 39.799999 52.400002 39.200001 52.599998 38.200001C 52.799999 36.799999 52.799999 35.400002 53.200001 34C 54.400002 33.799999 55.799999 34 57 34C 56 31.4 55.799999 28.200001 54.200001 25.799999C 52.599998 23.200001 52 21.799999 49.400002 21C 47 20.4 45.799999 23 44.799999 25.799999C 44.400002 26.799999 44 27.799999 43.799999 28.799999M 45.400002 15C 45.599998 17.200001 47.200001 18.799999 49.400002 19C 51.599998 19.200001 53.599998 17.200001 53.400002 15C 53.200001 12.8 51.799999 11 49.400002 11C 47.200001 11.2 44.799999 13 45.400002 15M 28 47C 28.4 44.200001 27.6 41.200001 28 38.400002M 40 47C 41 44.400002 40.200001 41.200001 40 38.400002M 28 44C 31.799999 42.799999 36 43.799999 40 44M 34 57C 34.200001 54 34.400002 51 34 48M 34 30C 34.599998 32.599998 33.799999 35.200001 34 38M 37.200001 57C 38.200001 57 38.799999 56 39.200001 55.200001C 40.200001 52.599998 39.599998 49.599998 40 47C 40.599998 46.799999 41.400002 46.799999 42 47C 43 47.400002 44 46 44 45C 44 43.200001 43.799999 41.599998 44 40C 44.400002 34.400002 39.400002 31 34 30C 28.6 29 24 34.400002 24 40C 24 41.599998 24.200001 43.200001 24 45C 23.799999 46 24.799999 46.799999 26 47C 26.6 47 27.4 47 28 47C 28.4 49.599998 29 52.400002 28.799999 55.200001C 28.799999 56.200001 29.799999 57 30.799999 57C 33 56.799999 35.200001 57.799999 37.200001 57M 27 20C 27.6 23.799999 30.200001 26.6 34 27C 37.799999 27.4 40.400002 23.799999 41 20C 41.599998 16.200001 37.599998 14.2 34 13C 30.4 11.8 27.4 16 27 20M 27.799999 16.799999C 29.4 19.200001 33 19.799999 36 20C 37.599998 20 39.599998 19.799999 40.799999 19"></path></g></g></g><g id="g-root-ic_hamm_4lopog1wbx43r-fill" data-item-order="0" transform="translate(309.2724304199219, 14)"></g><g id="g-root-ic_hamm_4lopog1wbx43r-stroke" data-item-order="0" transform="translate(309.2724304199219, 14)"><g id="ic_hamm_4lopog1wbx43r-stroke" fill="none" stroke-linecap="round" stroke-linejoin="round" stroke-miterlimit="4" stroke="#484848" stroke-width="2" stroke-opacity="1"><g><path d="M 31 55.799999C 31 56.352283 30.552284 56.799999 30 56.799999L 12 56.799999C 11.447716 56.799999 11 56.352283 11 55.799999L 11 52.799999C 11 51.695431 11.895431 50.799999 13 50.799999L 29 50.799999C 30.10457 50.799999 31 51.695431 31 52.799999ZM 29 50.799999L 13 50.799999L 13 48.799999C 13 47.695431 13.895431 46.799999 15 46.799999L 27 46.799999C 28.10457 46.799999 29 47.695431 29 48.799999ZM 24.000582 26.799421L 35.000336 15.79967L 42.00069 22.800026L 31.000938 33.799778ZM 24 26.799999L 23 25.799999C 21.116001 23.92 18.110001 26.91 20 28.799999L 29 37.799999C 30.886 39.686001 33.891998 36.692001 32 34.799999L 31 33.799999M 42 22.799999L 43 23.799999C 44.886002 25.686001 47.891998 22.692001 46 20.799999L 37 11.8C 35.115997 9.92 32.110001 12.91 34 14.8L 35 15.8M 36.5 28.298L 57 48.798M 31 55.799999C 31.200001 56.400002 30.6 56.599998 30 56.799999C 24.200001 58.599998 17.799999 58.400002 12 56.799999C 11.4 56.599998 11 56.400002 11 55.799999C 11 54.799999 11.2 53.799999 11 52.799999C 10.8 51.799999 12 51.200001 13 50.799999C 18 49 23.799999 51.799999 29 50.799999C 30 50.599998 30.799999 51.799999 31 52.799999C 31.200001 53.799999 30.799999 54.799999 31 55.799999M 29 50.799999C 23.6 50.200001 18.200001 49.400002 13 50.799999C 12.8 50.200001 13.2 49.400002 13 48.799999C 12.8 47.799999 14 46.799999 15 46.799999C 19 47 23 46.599998 27 46.799999C 28.200001 46.799999 29.200001 47.799999 29 48.799999C 29 49.400002 28.799999 50.200001 29 50.799999M 24 26.799999C 27 22.6 30.799999 18.799999 35 15.8C 36.799999 18.6 39.799999 20.4 42 22.799999C 37.799999 25.799999 34.799999 30.4 31 33.799999C 28 32.400002 26.4 29 24 26.799999M 24 26.799999C 23.6 26.4 23.4 26 23 25.799999C 20.799999 24.200001 18.4 26.799999 20 28.799999C 22.6 32.200001 25.4 35.400002 29 37.799999C 31.200001 39.200001 34.400002 36.200001 32 34.799999C 31.6 34.599998 31.200001 34.200001 31 33.799999M 42 22.799999C 42.200001 23.200001 42.599998 23.6 43 23.799999C 45.400002 25 48.400002 22.200001 46 20.799999C 42.400002 18.799999 39.599998 15.2 37 11.8C 35.400002 9.6 32.200001 12.8 34 14.8C 34.400002 15.2 34.799999 15.4 35 15.8M 36.599998 28.200001C 42.400002 36 50.799999 41.400002 57 48.799999"></path></g></g></g><g id="g-root-ic_hurr_v7z9c01wbx43p-fill" data-item-order="0" transform="translate(151.27243041992188, 85.9959716796875)"></g><g id="g-root-ic_hurr_v7z9c01wbx43p-stroke" data-item-order="0" transform="translate(151.27243041992188, 85.9959716796875)"><g id="ic_hurr_v7z9c01wbx43p-stroke" fill="none" stroke-linecap="round" stroke-linejoin="round" stroke-miterlimit="4" stroke="#484848" stroke-width="2" stroke-opacity="1"><g><path d="M 75.25 25.75L 16.75 25.75C 14.35 25.75 12.25 23.650002 12.25 21.25L 12.25 16.75C 12.25 14.35 14.35 12.25 16.75 12.25L 75.25 12.25C 77.649994 12.25 79.75 14.35 79.75 16.75L 79.75 21.25C 79.75 23.650002 77.649994 25.75 75.25 25.75ZM 60.25 52.75L 16.75 52.75C 14.35 52.75 12.25 50.650002 12.25 48.25L 12.25 43.75C 12.25 41.349998 14.35 39.25 16.75 39.25L 60.25 39.25C 62.649998 39.25 64.75 41.349998 64.75 43.75L 64.75 48.25C 64.75 50.650002 62.649998 52.75 60.25 52.75ZM 45.25 79.75L 16.75 79.75C 14.35 79.75 12.25 77.649994 12.25 75.25L 12.25 70.75C 12.25 68.350006 14.35 66.25 16.75 66.25L 45.25 66.25C 47.650002 66.25 49.75 68.350006 49.75 70.75L 49.75 75.25C 49.75 77.649994 47.650002 79.75 45.25 79.75ZM 75.399994 25.900002C 55.900002 26.5 35.800003 29.200001 16.9 25.900002C 14.5 25.299999 11.8 23.5 12.4 21.4C 12.4 19.9 12.4 18.1 12.4 16.9C 11.8 14.5 14.5 12.7 16.9 12.4C 35.800003 7.9 55.900002 15.4 75.399994 12.4C 77.5 11.8 80.199997 14.5 79.899994 16.9C 79.300003 18.1 79.300003 19.9 79.899994 21.4C 80.5 23.5 77.5 25.599998 75.399994 25.900002M 60.399998 52.900002C 46.300003 48.699997 30.700001 56.199997 16.9 52.900002C 14.5 52.300003 12.4 50.800003 12.4 48.400002C 12.1 46.900002 12.1 45.099998 12.4 43.900002C 12.7 41.5 14.5 39.099998 16.9 39.400002C 31.299999 39.699997 45.699997 40 60.399998 39.400002C 62.5 39.099998 64 41.5 64.899994 43.900002C 65.199997 45.099998 64.600006 46.900002 64.899994 48.400002C 64.899994 50.5 62.5 52.300003 60.399998 52.900002M 45.400002 79.899994C 35.800003 80.5 26.200001 80.800003 16.9 79.899994C 14.5 79.600006 12.1 77.5 12.4 75.399994C 12.4 73.899994 11.8 72.100006 12.4 70.899994C 12.7 68.5 14.5 66.399994 16.9 66.399994C 26.200001 66.100006 35.800003 65.5 45.400002 66.399994C 47.5 66.399994 49.300003 68.5 49.900002 70.899994C 49.900002 72.100006 49.599998 73.899994 49.900002 75.399994C 49.900002 77.5 47.5 80.199997 45.400002 79.899994"></path></g></g></g><g id="g-root-ic_milk_hx581s1wbx2iu-fill" data-item-order="0" transform="translate(163.27243041992188, 266)"></g><g id="g-root-ic_milk_hx581s1wbx2iu-stroke" data-item-order="0" transform="translate(163.27243041992188, 266)"><g id="ic_milk_hx581s1wbx2iu-stroke" fill="none" stroke-linecap="round" stroke-linejoin="round" stroke-miterlimit="4" stroke="#484848" stroke-width="2" stroke-opacity="1"><g><path d="M 28 11L 40 11C 40 11 41 11 41 12L 41 16C 41 16 41 17 40 17L 28 17C 28 17 27 17 27 16L 27 12C 27 12 27 11 28 11M 29 17L 29 24.68C 28.983522 25.467972 28.505808 26.172796 27.780001 26.48C 22.720001 28.719999 21 33.419998 21 39L 21 51C 21 54.313709 23.686291 57 27 57L 41 57C 44.313709 57 47 54.313709 47 51L 47 39C 47 33.419998 45.279999 28.719999 40.220001 26.48C 39.494194 26.172796 39.016479 25.467972 39 24.68L 39 17M 28 35L 40 35C 40 35 41 35 41 36L 41 40C 41 40 41 41 40 41L 28 41C 28 41 27 41 27 40L 27 36C 27 36 27 35 28 35M 28 11C 32 10.4 36.200001 9.8 40 11C 40 11 40.799999 11 41 12C 41.400002 13.2 41 14.6 41 16C 41 16 41 17.200001 40 17C 36.200001 16 32 17 28 17C 28 17 26.6 17 27 16C 27.4 14.8 26.799999 13.4 27 12C 27 12 27 11.2 28 11M 29 17C 29 19.6 28.799999 22.200001 29 24.6C 29 25.4 28.6 26.4 27.799999 26.4C 22.200001 27 22.799999 33.799999 21 39C 19.799999 42.799999 21.200001 47 21 51C 20.799999 54.400002 23.799999 57.799999 27 57C 31.6 55.799999 36.400002 56.400002 41 57C 44.200001 57.400002 46.599998 54.200001 47 51C 47.599998 47 47.799999 43 47 39C 46 33.599998 45.599998 28 40.200001 26.4C 39.400002 26.200001 38.799999 25.4 39 24.6C 39.799999 22.200001 38 19.4 39 17M 28 35C 32 35.400002 36.200001 36 40 35C 40 35 41 35 41 36C 41 37.400002 41.200001 38.599998 41 40C 41 40 41 41 40 41C 36 41 32 41.799999 28 41C 28 41 26.799999 41 27 40C 27.200001 38.599998 27.200001 37.400002 27 36C 27 36 27 35.200001 28 35"></path></g></g></g></g></g></svg>